<?xml version="1.0" standalone="no"?>
<!DOCTYPE svg PUBLIC "-//W3C//DTD SVG 20010904//EN" "http://www.w3.org/TR/2001/REC-SVG-20010904/DTD/svg10.dtd">
<svg version="1.0" xmlns="http://www.w3.org/2000/svg" width="300.000000pt" height="400.000000pt" viewBox="0 0 300.000000 400.000000" preserveAspectRatio="xMidYMid meet">
	<metadata>
Created by potrace 1.10, written by Peter Selinger 2001-2011
</metadata>
	<g transform="translate(0.000000,400.000000) scale(0.100000,-0.100000)" fill="#000000" stroke="none">
		<path d="M1481 3929 c-1 -69 -3 -77 -25 -87 -19 -8 -24 -20 -30 -70 -4 -33
-10 -63 -14 -67 -4 -3 -8 -11 -8 -16 -1 -5 -2 -13 -3 -19 0 -5 -7 -10 -15 -10
-7 0 -19 -7 -26 -15 -10 -12 -10 -15 3 -15 9 0 19 5 22 10 4 6 11 8 16 5 5 -4
9 2 9 12 0 13 3 14 8 5 10 -14 72 -6 72 10 0 6 -7 7 -15 4 -8 -3 -22 -9 -30
-12 -8 -3 -15 -1 -15 5 0 6 5 11 11 11 5 0 8 4 5 9 -3 5 1 12 10 15 8 3 12 2
9 -4 -4 -6 13 -8 44 -5 36 3 51 0 55 -10 3 -8 0 -16 -7 -19 -8 -3 -8 -5 -1 -5
6 -1 17 5 23 13 19 22 -12 38 -81 41 l-63 4 3 48 c2 26 7 51 11 55 3 4 5 -10
3 -31 -2 -22 1 -42 8 -46 18 -11 25 3 25 55 0 56 5 64 35 55 14 -4 19 -12 16
-22 -4 -9 -4 -31 0 -49 5 -28 11 -34 31 -34 21 0 23 2 13 15 -7 8 -15 13 -19
10 -4 -2 -5 9 -3 26 5 34 -20 69 -49 69 -13 0 -16 6 -13 28 3 15 0 46 -5 67
-8 37 -9 34 -10 -36z" />
		<path d="M2231 3986 c-7 -8 -38 -92 -71 -186 -32 -94 -61 -175 -65 -178 -3 -3
-99 -9 -213 -12 -204 -5 -206 -5 -178 -23 21 -14 30 -16 42 -6 12 10 14 6 14
-25 0 -20 4 -36 8 -36 5 0 8 10 8 23 -1 13 4 21 13 19 7 -1 19 5 27 15 8 11
13 13 14 6 0 -18 29 -16 36 2 4 8 11 15 16 15 6 0 8 -7 4 -15 -7 -19 4 -19 32
1 20 14 26 12 23 -8 0 -4 6 -5 15 -1 14 5 15 3 4 -18 -13 -24 -13 -24 7 -4 11
11 18 25 16 32 -3 8 8 8 42 -2 61 -19 68 -24 62 -47 -4 -16 -3 -17 9 -7 7 6
11 15 9 20 -5 7 38 154 56 191 5 10 9 25 9 35 0 13 3 14 12 5 8 -8 9 -18 0
-36 -6 -13 -8 -34 -5 -47 4 -12 2 -20 -3 -17 -12 8 -9 -40 4 -72 9 -22 11 -22
12 -5 1 19 2 19 9 1 4 -10 6 25 4 78 -2 62 1 96 8 96 6 0 8 8 5 18 -3 9 -1 24
4 32 5 8 10 11 11 5 0 -5 4 -1 8 10 5 11 3 27 -2 36 -8 13 -4 22 19 42 25 22
27 28 17 46 -10 15 -10 21 0 24 7 3 2 6 -9 6 -12 1 -27 -5 -33 -13z" />
		<path d="M2381 3985 c-1 -12 4 -26 11 -33 9 -9 9 -21 0 -51 -7 -21 -10 -46 -6
-54 3 -8 -4 -24 -16 -35 -15 -14 -20 -27 -15 -41 3 -12 2 -21 -3 -21 -6 0 -15
-14 -21 -31 -13 -39 -13 -39 -1 -39 6 0 10 9 10 20 0 11 9 29 20 40 22 22 27
45 8 35 -7 -4 -3 2 10 13 12 11 22 26 22 34 0 7 11 30 25 50 14 20 25 46 25
57 0 12 7 21 15 21 8 0 15 4 15 9 0 5 3 16 6 25 9 25 -11 19 -25 -6 l-12 -23
5 23 c2 12 0 22 -5 22 -5 0 -9 -20 -9 -44 0 -27 -6 -51 -16 -60 -19 -20 -31
-21 -15 -2 8 10 9 28 3 63 -6 26 -11 39 -12 28 -1 -20 -1 -20 -10 0 -9 20 -9
20 -9 0z" />
		<path d="M2520 3989 c0 -5 4 -8 9 -4 6 3 8 -10 5 -32 -4 -37 -4 -37 6 -8 5 17
8 36 5 43 -5 15 -25 16 -25 1z" />
		<path d="M2573 3973 c-11 -25 -8 -73 5 -73 9 0 51 54 46 60 -3 3 -11 -3 -18
-13 -19 -26 -24 -21 -19 18 6 42 2 44 -14 8z" />
		<path d="M2671 3980 c-1 -14 -4 -36 -6 -50 -3 -14 -3 -19 1 -12 3 6 10 12 16
12 13 0 47 41 48 58 0 22 -20 13 -33 -15 l-12 -27 -6 30 c-6 27 -7 27 -8 4z" />
		<path d="M2727 3930 c-27 -39 -52 -68 -57 -65 -5 3 -12 0 -16 -6 -4 -8 -3 -9
4 -5 31 19 21 4 -319 -472 -100 -139 -184 -251 -187 -248 -2 3 0 11 5 18 14
17 14 70 0 61 -6 -4 -7 -1 -1 8 5 8 9 19 10 24 4 38 6 40 14 20 8 -19 9 -19 9
2 1 12 6 25 11 28 6 3 10 15 10 26 0 13 -4 18 -11 13 -9 -5 -10 1 -5 22 15 61
18 94 8 94 -6 0 -12 -8 -14 -17 -3 -15 -4 -15 -20 1 -17 16 -17 19 2 57 11 21
22 39 24 39 7 0 -6 -44 -17 -58 -15 -19 -1 -25 17 -7 12 12 16 31 14 66 -2 27
-4 49 -5 49 -1 0 -9 -12 -18 -27 l-16 -28 6 27 c3 15 1 29 -4 32 -14 9 -19
-16 -9 -43 5 -15 4 -28 -2 -36 -15 -18 -24 -102 -11 -109 5 -4 7 3 3 16 -3 14
-2 19 6 14 7 -4 12 -14 12 -22 0 -9 5 -12 12 -8 7 4 8 3 4 -4 -4 -7 -14 -12
-22 -12 -10 0 -14 -14 -16 -47 -2 -76 -4 -96 -13 -133 -7 -31 -6 -33 9 -21 19
16 20 11 4 -24 -8 -19 -14 -22 -20 -13 -7 10 -9 9 -5 -2 3 -12 17 -14 62 -12
55 3 61 6 107 54 26 27 48 53 48 58 0 4 7 13 16 21 13 10 17 10 25 -2 7 -12 9
-11 9 3 0 9 3 25 7 35 6 17 5 17 -15 -1 -48 -42 -17 1 65 93 48 53 71 80 50
62 -41 -39 -50 -29 -14 16 73 90 40 62 -77 -67 -32 -36 -49 -51 -38 -34 12 17
28 37 37 44 8 7 15 18 15 24 0 7 8 21 18 32 10 11 31 42 47 69 16 28 35 54 42
58 7 4 13 12 13 17 0 7 102 151 138 195 12 15 98 149 111 174 9 16 9 21 -1 21
-7 0 -35 -32 -61 -70z m-278 -527 c-7 -10 -33 -39 -57 -65 -24 -25 -42 -50
-38 -56 7 -12 -64 -83 -94 -94 -19 -7 -20 -6 -7 12 33 48 189 220 199 220 6 0
5 -7 -3 -17z" />
		<path d="M2932 3890 c-35 -38 -57 -67 -50 -65 11 5 12 -8 7 -67 -10 -91 -11
-143 -3 -136 3 3 6 20 6 37 1 18 5 34 9 37 5 2 6 11 3 18 -3 7 6 35 20 61 27
50 33 85 16 85 -5 0 -9 -3 -8 -7 0 -5 -2 -16 -5 -25 -4 -10 -10 -26 -13 -35
-4 -13 -8 -14 -11 -5 -3 7 -2 20 3 30 4 9 8 24 10 32 2 8 14 24 28 35 15 12
26 25 26 30 0 4 7 17 17 27 9 10 14 18 12 18 -3 0 -33 -31 -67 -70z" />
		<path d="M2486 3941 c-4 -6 -2 -11 4 -11 6 0 -1 -12 -15 -27 -21 -23 -25 -37
-23 -76 1 -26 -4 -53 -10 -59 -16 -16 -15 -31 1 -23 6 4 4 0 -5 -8 -10 -8 -18
-19 -18 -26 0 -6 -6 -11 -14 -11 -10 0 -14 -11 -13 -35 1 -28 4 -32 15 -23 7
6 11 19 9 29 -3 10 9 29 30 49 19 18 32 38 29 45 -2 7 10 30 28 52 18 21 32
46 30 56 -4 32 -14 32 -14 0 0 -17 -8 -37 -19 -47 -19 -17 -19 -16 -14 26 3
24 10 48 15 55 6 7 6 18 0 29 -6 11 -11 13 -16 5z" />
		<path d="M2555 3890 c-3 -5 3 -10 15 -10 12 0 18 -5 15 -10 -3 -6 1 -13 9 -16
9 -3 13 -11 9 -18 -4 -6 1 -4 12 4 16 13 16 15 2 18 -10 2 -17 7 -17 12 0 15
-38 32 -45 20z" />
		<path d="M1598 3840 c-3 -17 -2 -32 1 -35 17 -18 25 -123 10 -141 -10 -13 -10
-17 2 -25 20 -12 29 -11 25 4 -3 6 -7 58 -10 115 -5 79 -3 102 7 102 9 0 12
-13 10 -42 -2 -35 -1 -38 6 -18 5 14 9 35 10 48 1 18 -4 22 -28 22 -24 0 -29
-5 -33 -30z" />
		<path d="M2331 3848 c-1 -9 -6 -18 -13 -20 -8 -3 -8 -9 0 -23 10 -18 11 -18
17 7 4 15 5 33 2 40 -4 9 -6 7 -6 -4z" />
		<path d="M2969 3813 c0 -27 -2 -58 -5 -70 -6 -36 -6 -37 -4 -53 3 -23 29 106
28 140 -2 49 -18 34 -19 -17z" />
		<path d="M2838 3780 c-18 -16 -27 -30 -20 -30 6 0 12 5 12 11 0 5 4 8 9 4 5
-3 13 0 17 6 5 8 9 8 14 -1 5 -7 8 -2 8 14 0 14 -2 26 -4 26 -2 0 -18 -13 -36
-30z" />
		<path d="M2270 3789 c0 -5 -4 -8 -9 -5 -11 7 -32 -40 -25 -57 3 -8 0 -26 -5
-40 -16 -41 -4 -32 18 14 16 32 17 40 6 35 -21 -8 -18 7 5 27 18 15 27 37 15
37 -3 0 -5 -5 -5 -11z" />
		<path d="M2317 3763 c-4 -3 -7 -13 -7 -21 0 -9 -8 -24 -17 -34 -13 -14 -14
-21 -5 -30 9 -9 12 -7 12 9 0 12 4 24 9 27 5 3 11 17 13 31 6 27 5 29 -5 18z" />
		<path d="M2390 3751 c0 -10 -7 -21 -15 -25 -8 -3 -15 -15 -15 -27 0 -18 4 -16
25 15 27 39 31 56 15 56 -5 0 -10 -9 -10 -19z" />
		<path d="M1975 3723 c1 -16 3 -38 3 -50 2 -16 7 -20 23 -16 15 4 19 11 15 27
-3 11 -6 31 -6 44 0 15 -6 22 -19 22 -14 0 -18 -7 -16 -27z" />
		<path d="M2834 3725 c3 -8 1 -15 -5 -15 -6 0 -9 -6 -6 -12 2 -7 0 -24 -5 -38
-6 -17 -6 -22 1 -15 5 6 16 29 24 53 13 37 13 42 0 42 -9 0 -13 -6 -9 -15z" />
		<path d="M2463 3690 c-6 -14 -16 -42 -24 -62 -7 -22 -16 -33 -20 -27 -4 7 -13
-2 -23 -23 -12 -25 -14 -41 -7 -59 5 -13 11 -18 12 -11 1 6 3 17 4 22 1 6 3
15 4 22 0 6 4 8 7 5 20 -20 71 98 62 139 -4 17 -6 16 -15 -6z" />
		<path d="M2989 3678 c-2 -7 -1 -42 2 -78 l6 -65 1 78 c2 73 -1 93 -9 65z" />
		<path d="M2941 3659 c-1 -9 -7 -16 -13 -15 -7 0 -13 -3 -13 -9 0 -5 6 -9 13
-7 12 3 15 -11 14 -83 0 -49 -6 -88 -17 -105 -5 -8 -4 -11 2 -7 7 4 9 -33 7
-111 -2 -89 1 -65 13 95 12 157 14 218 5 235 -8 17 -11 18 -11 7z" />
		<path d="M1303 3624 c-18 -9 -31 -20 -28 -24 9 -14 -56 -20 -209 -20 -83 0
-275 -5 -426 -11 -151 -6 -356 -14 -455 -17 l-180 -7 -3 -35 c-3 -33 -2 -34
12 -14 12 16 25 20 68 19 32 -1 58 4 66 12 7 7 19 13 25 12 9 0 8 -2 0 -6 -7
-2 -13 -11 -13 -18 0 -8 -9 -17 -20 -20 -11 -3 -20 -11 -20 -16 0 -14 37 8 49
29 14 26 26 6 13 -23 -18 -38 2 -30 24 10 15 29 24 35 49 34 16 0 60 2 97 5
56 4 66 3 61 -9 -3 -8 -9 -13 -13 -10 -4 3 -13 -2 -20 -10 -7 -8 -24 -15 -37
-15 -31 0 -25 -23 6 -25 16 -1 25 5 29 17 5 20 22 25 22 6 0 -8 3 -9 8 -3 14
19 98 43 115 33 10 -5 17 -6 16 -1 -1 4 -1 15 0 23 1 13 2 13 11 0 8 -13 13
-13 31 -2 19 12 21 12 16 -1 -4 -12 0 -13 21 -7 15 4 26 12 24 19 -2 13 14 15
22 2 3 -5 16 -11 28 -14 13 -2 31 -8 40 -12 13 -5 16 -2 12 17 -5 22 -5 22 10
4 16 -20 53 -15 40 5 -4 8 -3 9 5 5 6 -4 9 -11 6 -15 -2 -5 13 -11 36 -15 39
-6 63 -34 52 -62 -2 -6 2 -14 9 -17 9 -3 14 3 15 14 1 10 -3 19 -9 19 -7 0 -6
5 2 14 9 12 7 18 -9 33 -23 19 -27 33 -10 33 5 0 7 -6 3 -12 -6 -10 -4 -10 7
0 16 14 59 16 59 2 0 -5 -3 -9 -7 -9 -20 3 -34 -2 -28 -10 3 -6 29 -7 63 -3
89 11 162 7 174 -9 7 -10 8 -6 4 14 -6 25 -4 27 24 27 18 0 29 -4 25 -10 -3
-5 0 -10 7 -10 14 0 111 76 116 91 5 12 3 11 -35 -7z" />
		<path d="M1473 3626 c11 -11 29 -13 70 -9 43 4 62 2 82 -11 14 -9 25 -12 25
-7 0 11 -73 41 -101 41 -11 0 -29 -5 -40 -10 -13 -7 -19 -7 -19 0 0 5 -7 10
-16 10 -13 0 -14 -2 -1 -14z" />
		<path d="M2756 3613 c-6 -15 -8 -15 -16 -3 -7 10 -10 11 -10 3 0 -7 -6 -13
-14 -13 -7 0 -16 -10 -19 -22 -5 -19 -4 -21 6 -8 21 26 38 23 33 -6 -3 -14 -1
-35 4 -47 7 -18 9 -13 10 23 0 38 17 80 31 80 3 0 3 -18 1 -40 -2 -22 1 -46 7
-54 12 -14 5 -46 -10 -46 -5 0 -9 -12 -9 -26 0 -14 3 -23 8 -20 7 4 9 -54 4
-188 -2 -60 -4 -67 -17 -56 -13 11 -15 7 -15 -24 0 -20 4 -36 9 -36 5 0 7 -29
4 -67 -3 -38 -2 -65 3 -60 4 4 9 15 10 25 8 54 34 483 31 489 -3 5 -1 31 2 59
7 49 6 50 -20 52 -18 1 -29 -4 -33 -15z" />
		<path d="M2856 3618 c-4 -9 -6 -30 -4 -46 l3 -30 18 35 c9 19 13 32 8 29 -5
-4 -11 2 -14 11 -4 16 -5 17 -11 1z" />
		<path d="M2340 3589 c0 -5 -4 -7 -10 -4 -5 3 -10 -3 -10 -15 0 -12 -4 -19 -9
-16 -9 6 -31 -36 -31 -60 0 -8 5 -12 10 -9 6 3 10 14 10 24 0 25 26 47 34 29
3 -7 3 -3 0 10 -5 20 2 26 27 24 3 -1 6 6 6 14 0 8 -6 14 -14 14 -7 0 -13 -5
-13 -11z" />
		<path d="M1662 3585 c5 -5 -13 -21 -40 -36 -55 -32 -98 -74 -83 -83 5 -4 12 3
16 14 6 20 20 26 28 13 2 -5 2 -2 1 5 -2 6 3 12 12 12 10 0 13 -7 9 -23 -6
-21 -3 -24 25 -24 24 0 28 3 16 9 -9 5 -20 7 -25 4 -17 -11 -6 49 13 66 20 19
52 10 63 -18 3 -8 13 -14 22 -15 9 0 11 -3 4 -5 -7 -3 0 -16 19 -35 17 -16 25
-29 18 -29 -10 0 -10 -3 0 -15 21 -25 30 -17 17 18 -22 60 -59 114 -90 132
-18 10 -29 14 -25 10z" />
		<path d="M2656 3575 c-11 -8 -16 -15 -10 -15 5 0 -2 -6 -15 -13 -33 -17 -51
-48 -41 -72 8 -20 8 -20 16 0 4 11 22 34 41 51 18 18 33 39 33 48 0 19 0 19
-24 1z" />
		<path d="M1270 3520 c-6 -11 -16 -17 -25 -14 -19 8 -19 -10 0 -26 18 -15 47
-6 39 14 -3 8 -1 17 5 21 6 3 11 10 11 16 0 16 -19 10 -30 -11z" />
		<path d="M2870 3515 c0 -14 -5 -25 -11 -25 -5 0 -7 5 -4 10 3 6 1 10 -4 10 -6
0 -11 -13 -11 -30 0 -23 4 -30 20 -30 17 0 20 7 20 45 0 25 -2 45 -5 45 -3 0
-5 -11 -5 -25z" />
		<path d="M2989 3518 c0 -7 -2 -31 -4 -54 -2 -22 1 -47 6 -55 6 -9 9 10 9 54 0
37 -2 67 -5 67 -3 0 -5 -6 -6 -12z" />
		<path d="M272 3508 c-5 -7 -13 -24 -17 -37 -6 -20 -4 -23 9 -18 9 4 16 2 16
-3 0 -6 -12 -10 -27 -10 -43 0 -113 -30 -113 -49 0 -14 2 -14 10 -1 8 12 12
13 19 1 7 -10 12 -8 24 9 10 14 31 25 54 29 30 5 38 11 38 28 0 12 4 25 8 29
10 10 9 34 -2 34 -5 0 -13 -6 -19 -12z" />
		<path d="M1358 3493 c17 -17 32 -38 32 -46 0 -8 10 -17 23 -21 33 -9 49 -7 42
4 -3 6 1 10 10 10 10 0 13 -5 9 -12 -4 -7 -3 -8 4 -4 26 16 10 28 -33 24 -28
-2 -45 1 -45 8 0 11 -34 45 -60 59 -8 5 0 -5 18 -22z" />
		<path d="M1927 3514 c8 -4 9 -13 1 -35 -5 -16 -15 -26 -21 -22 -6 3 -7 1 -3
-6 12 -19 -2 -63 -17 -54 -9 5 -9 3 1 -9 10 -13 9 -16 -7 -21 -13 -3 -21 1
-24 12 -4 12 -5 11 -6 -4 0 -12 -6 -26 -13 -33 -9 -9 -9 -12 1 -12 7 0 9 -5 5
-12 -4 -6 3 -4 17 5 13 9 37 18 54 18 l30 1 -30 8 c-16 4 -25 8 -18 9 6 0 12
9 11 19 0 9 9 44 21 76 25 71 25 66 4 65 -10 0 -13 -3 -6 -5z" />
		<path d="M2348 3506 c-10 -7 -18 -16 -18 -19 0 -4 8 -4 18 0 15 6 15 4 -2 -15
-24 -27 -17 -28 13 -3 16 14 20 25 14 35 -7 12 -11 12 -25 2z" />
		<path d="M2683 3455 c0 -38 2 -53 4 -32 2 20 2 52 0 70 -2 17 -4 1 -4 -38z" />
		<path d="M1847 3472 c-11 -26 -23 -42 -34 -43 -11 0 -13 -3 -6 -6 10 -3 10
-10 2 -26 l-10 -22 18 21 c10 11 25 23 33 27 9 3 10 6 3 6 -7 1 -10 8 -7 16 4
8 10 13 14 10 12 -7 18 17 10 39 -5 16 -9 12 -23 -22z" />
		<path d="M1297 3480 c3 -11 8 -20 12 -21 29 -3 45 -9 51 -19 4 -7 10 -8 13 -3
3 5 2 15 -4 23 -5 8 -9 11 -9 7 0 -5 -13 1 -29 12 -36 26 -40 26 -34 1z" />
		<path d="M492 3483 c-6 -2 -10 -9 -6 -14 3 -5 0 -9 -7 -9 -10 0 -10 -3 -2 -11
14 -14 34 -3 27 16 -4 8 3 15 18 18 18 3 19 4 3 5 -11 0 -26 -2 -33 -5z" />
		<path d="M2519 3438 c-24 -28 -43 -55 -41 -60 1 -5 -1 -7 -6 -4 -5 3 -23 -9
-39 -27 -24 -24 -29 -37 -23 -52 8 -19 9 -19 9 2 1 20 60 75 61 56 1 -4 7 6
15 22 15 30 15 30 10 -20 -12 -125 -16 -323 -6 -329 6 -4 9 34 10 101 0 152 8
254 22 289 l12 29 6 -24 c6 -23 8 -22 19 16 21 72 10 72 -49 1z" />
		<path d="M2726 3348 c-4 -84 -12 -153 -20 -168 -10 -21 -10 -30 -1 -44 10 -13
15 8 24 116 19 222 20 238 12 238 -4 0 -11 -64 -15 -142z" />
		<path d="M2626 3439 c-5 -35 -18 -209 -21 -289 -4 -99 -4 -100 -21 -93 -9 3
-14 13 -11 23 2 10 1 24 -4 31 -5 9 -9 -10 -9 -48 0 -51 -3 -63 -16 -63 -12 0
-14 3 -6 13 10 12 8 234 -3 245 -3 3 -5 -30 -6 -74 0 -43 -2 -103 -5 -132 -4
-41 -2 -53 10 -58 23 -9 20 -23 -8 -33 -22 -9 -72 -88 -62 -98 3 -3 20 9 38
28 18 18 27 29 19 24 -11 -6 -10 -2 2 15 10 15 39 31 77 42 56 17 60 21 60 48
0 17 4 30 9 30 5 0 16 3 24 6 11 4 17 -2 20 -18 2 -13 5 -2 6 24 1 41 -1 46
-18 41 -12 -3 -17 -11 -14 -19 5 -13 -7 -18 -34 -15 -6 1 -14 -3 -18 -9 -3 -5
-1 -10 4 -10 21 0 12 -47 -10 -53 -20 -5 -20 -3 -14 101 3 59 10 165 16 235 6
71 8 131 6 134 -3 3 -8 -10 -11 -28z m-26 -420 c0 -20 -15 -26 -25 -9 -9 15 3
43 15 35 5 -3 10 -15 10 -26z" />
		<path d="M1057 3431 c5 -21 -23 -25 -47 -7 -12 9 -11 6 2 -15 15 -24 15 -27
-3 -50 -15 -19 -21 -21 -28 -10 -7 11 -11 10 -20 -7 -8 -16 -8 -24 4 -35 8 -8
12 -17 10 -21 -3 -3 -2 -4 1 -2 3 2 5 7 4 11 -3 17 49 44 79 40 27 -3 32 -1
27 11 -3 9 -6 21 -6 27 0 6 -7 2 -15 -10 -9 -13 -22 -20 -30 -17 -24 10 -17
24 15 35 22 8 30 17 30 34 0 13 -6 25 -14 28 -9 4 -12 0 -9 -12z" />
		<path d="M1521 3434 c7 -9 4 -14 -13 -16 -13 -3 -2 -5 25 -5 28 -1 53 4 61 12
10 10 22 11 42 5 28 -8 29 -8 4 -10 -21 -2 -19 -4 10 -10 19 -4 49 -10 65 -14
28 -6 28 -6 5 4 -13 6 -27 15 -30 19 -3 5 -23 14 -44 20 -32 8 -43 8 -56 -4
-21 -19 -44 -19 -36 0 4 11 -1 14 -19 13 -17 -2 -21 -6 -14 -14z" />
		<path d="M314 3431 c5 -7 -2 -11 -16 -11 -13 0 -30 -5 -38 -11 -13 -9 -13 -10
1 -6 43 14 107 18 113 8 4 -6 12 -11 19 -11 7 0 6 5 -3 14 -19 18 -85 33 -76
17z" />
		<path d="M516 3421 c-20 -22 -20 -31 -1 -31 17 0 39 36 26 44 -4 3 -16 -3 -25
-13z" />
		<path d="M1104 3425 c24 -18 46 -19 46 -3 0 9 3 9 11 1 6 -6 20 -8 31 -5 15 4
17 7 6 13 -20 13 -56 11 -61 -3 -4 -10 -6 -10 -6 0 -1 6 -11 12 -23 12 -22 -1
-23 -1 -4 -15z" />
		<path d="M2583 3380 c0 -36 2 -50 4 -32 2 17 2 47 0 65 -2 17 -4 3 -4 -33z" />
		<path d="M2857 3358 c-4 -46 -7 -107 -7 -135 0 -31 -4 -53 -11 -53 -5 0 -7 5
-4 10 3 6 2 10 -4 10 -5 0 -9 -9 -8 -20 1 -11 5 -20 9 -20 4 0 8 -16 8 -35 0
-19 -5 -35 -11 -35 -8 0 -8 -4 0 -13 7 -10 7 -17 0 -24 -6 -6 -9 -19 -7 -29 4
-16 6 -16 15 6 11 27 40 407 31 415 -3 3 -8 -32 -11 -77z" />
		<path d="M731 3408 c0 -9 -11 -19 -23 -21 -13 -2 -3 -4 22 -4 25 -1 37 1 28 4
-9 2 -19 12 -21 21 -4 16 -5 16 -6 0z" />
		<path d="M801 3381 c-22 -21 -41 -47 -41 -57 0 -11 -12 -41 -25 -69 -14 -27
-25 -56 -25 -62 0 -10 -24 -13 -87 -13 -47 0 -83 -3 -80 -6 4 -4 40 -6 81 -5
l75 2 -2 -105 c-1 -58 -3 -106 -5 -106 -2 0 -13 5 -25 11 -21 10 -21 10 -3 -5
11 -9 26 -16 33 -16 7 0 13 -11 13 -24 0 -47 18 -35 22 14 6 59 30 90 70 90
18 0 28 5 28 15 0 12 -4 14 -20 5 -10 -6 -23 -9 -27 -8 -4 1 -19 -4 -32 -11
-14 -8 -21 -9 -17 -2 4 6 2 11 -4 11 -7 0 -8 6 0 19 5 11 6 22 1 25 -5 3 -11
15 -14 26 -3 11 -1 18 4 14 5 -3 8 3 7 13 -3 36 2 53 17 53 15 0 41 38 37 56
-1 6 5 17 13 24 8 7 15 22 15 33 0 11 -3 17 -7 13 -4 -4 -8 -15 -8 -24 0 -9
-8 -18 -18 -20 -16 -3 -16 -1 2 30 10 18 25 32 32 30 8 -2 11 0 7 3 -10 10 21
67 32 60 6 -4 10 1 10 9 0 25 -14 19 -59 -23z" />
		<path d="M912 3409 c-14 -5 -20 -13 -16 -20 4 -8 3 -9 -4 -5 -7 4 -12 2 -12
-3 0 -14 20 -14 40 -1 13 8 13 10 1 10 -11 0 -9 4 5 15 22 16 19 18 -14 4z" />
		<path d="M1283 3408 c2 -7 10 -12 16 -10 6 1 11 -2 11 -6 0 -18 -13 -20 -34
-8 -38 25 -66 29 -66 11 0 -9 4 -14 9 -10 5 3 12 1 15 -4 4 -5 -6 -12 -21 -14
-16 -3 2 -4 39 -3 42 2 65 -1 61 -7 -3 -6 -1 -7 5 -3 6 3 15 -2 21 -11 6 -10
11 -13 11 -6 0 6 -4 15 -10 18 -5 3 -10 12 -10 18 0 8 2 9 8 1 4 -6 15 -11 24
-11 13 0 15 4 7 19 -11 20 -24 25 -14 6 4 -7 1 -6 -7 3 -17 21 -72 35 -65 17z" />
		<path d="M213 3385 c2 -22 -3 -30 -18 -33 -11 -2 -24 -9 -30 -14 -7 -8 -6 -9
2 -4 6 3 14 2 18 -3 4 -7 15 -6 30 1 18 8 25 19 25 40 0 16 -4 27 -9 24 -5 -4
-12 0 -14 6 -3 7 -4 0 -4 -17z" />
		<path d="M410 3396 c0 -16 53 -40 72 -33 8 3 5 6 -7 7 -24 1 -57 24 -48 33 3
4 1 7 -5 7 -7 0 -12 -6 -12 -14z" />
		<path d="M1750 3399 c0 -7 8 -18 18 -25 16 -13 15 -16 -14 -43 -31 -28 -42
-31 -158 -46 -28 -4 -45 -10 -40 -15 13 -13 140 8 198 33 47 20 48 21 42 55
-5 32 -19 51 -38 52 -5 0 -8 -5 -8 -11z" />
		<path d="M940 3379 c0 -18 -39 -30 -61 -19 -19 11 -20 10 -8 -12 17 -33 18
-33 32 -14 7 9 19 18 27 19 8 2 23 8 34 13 17 11 17 11 -3 17 -11 3 -21 1 -21
-4z" />
		<path d="M1945 3360 c9 -10 20 -19 24 -18 29 3 61 -4 56 -13 -4 -5 7 -15 24
-22 33 -12 40 -37 16 -57 -8 -7 -15 -17 -15 -23 0 -5 9 -2 21 8 12 12 19 29
17 45 -1 14 1 31 5 38 5 6 4 12 -2 12 -5 0 -12 -6 -15 -12 -5 -10 -7 -10 -12
-1 -3 7 -12 9 -20 6 -25 -9 -15 6 13 21 27 14 27 14 -19 9 -34 -4 -55 -1 -72
11 -34 22 -43 20 -21 -4z" />
		<path d="M2542 3343 c-1 -23 -5 -50 -8 -60 -5 -17 -5 -17 6 0 6 9 9 36 7 60
l-4 42 -1 -42z" />
		<path d="M2673 3310 c0 -41 2 -58 4 -37 2 20 2 54 0 75 -2 20 -4 3 -4 -38z" />
		<path d="M1395 3350 c-3 -5 -12 -7 -20 -3 -8 3 -15 0 -15 -6 0 -6 9 -11 19
-11 11 0 23 -5 26 -11 4 -6 14 -8 22 -5 9 4 17 -1 20 -14 3 -11 10 -20 15 -20
5 0 6 5 2 11 -3 6 0 15 7 20 11 7 10 9 -3 9 -10 0 -18 4 -18 8 0 13 -48 33
-55 22z" />
		<path d="M1184 3335 c16 -12 17 -18 8 -27 -14 -14 -16 -38 -2 -38 5 0 7 6 4
14 -6 15 11 16 32 4 8 -5 8 3 0 27 -9 28 -16 35 -36 35 -24 -1 -24 -1 -6 -15z" />
		<path d="M1242 3327 c-6 -7 -7 -18 -2 -26 4 -8 6 -20 3 -28 -3 -7 -1 -13 5
-13 6 0 18 -3 28 -7 15 -6 14 -2 -5 26 -13 17 -20 38 -17 46 7 18 2 19 -12 2z" />
		<path d="M2218 3272 c-30 -71 -25 -72 15 -2 14 25 23 50 19 57 -4 6 -19 -17
-34 -55z" />
		<path d="M1937 3304 c3 -8 11 -14 19 -14 8 0 16 0 19 0 15 0 1 16 -19 21 -19
5 -23 3 -19 -7z" />
		<path d="M1490 3306 c0 -4 11 -22 25 -38 14 -16 22 -34 19 -40 -3 -5 2 -16 12
-24 11 -9 13 -13 7 -9 -8 4 -13 0 -13 -10 0 -9 -4 -14 -8 -11 -4 2 -8 -4 -8
-14 0 -11 6 -22 13 -24 7 -3 13 -1 13 5 0 6 4 8 9 5 15 -10 20 21 10 59 -9 33
-78 122 -79 101z" />
		<path d="M290 3289 c-52 -4 -139 -7 -192 -8 -74 -1 -98 -4 -98 -14 0 -11 45
-13 228 -11 125 2 218 1 207 -2 -11 -3 -24 -11 -30 -16 -7 -8 -6 -9 2 -4 6 3
15 2 18 -4 4 -6 3 -10 -2 -9 -4 1 -21 1 -38 0 -26 -1 -27 -3 -12 -12 9 -5 22
-7 27 -4 6 4 19 3 30 0 16 -5 20 -15 20 -46 0 -21 5 -39 10 -39 6 0 10 -33 10
-80 0 -63 -3 -80 -14 -80 -21 0 -48 30 -42 46 4 10 -3 14 -19 14 l-25 0 25
-40 c29 -47 32 -57 8 -39 -24 18 25 -40 57 -68 15 -14 20 -22 11 -23 -11 0
-11 -3 -1 -15 8 -9 8 -15 2 -15 -6 0 -12 6 -15 13 -3 8 -10 6 -22 -8 -10 -12
-15 -14 -12 -5 4 12 -9 15 -73 15 -43 0 -76 -3 -73 -7 2 -5 -7 -8 -21 -8 -13
0 -31 -3 -40 -6 -10 -4 -16 -1 -16 7 0 8 -12 15 -27 16 -19 1 -22 -1 -12 -8
13 -8 3 -10 -91 -14 -14 0 -24 -5 -22 -10 2 -6 -7 -13 -20 -17 l-23 -6 23 -1
c13 -1 20 -5 17 -11 -3 -5 3 -10 15 -10 12 0 18 5 15 10 -11 18 5 32 21 19 8
-7 56 -14 109 -16 81 -3 95 -2 95 12 0 8 5 15 10 15 6 0 10 -7 10 -15 0 -11
11 -15 39 -15 58 0 101 19 155 67 47 42 52 44 106 42 66 -3 87 6 69 27 -16 19
-59 18 -59 -1 0 -8 -4 -15 -10 -15 -5 0 -10 7 -10 15 0 8 -7 15 -15 15 -9 0
-15 6 -14 13 3 24 -1 37 -12 37 -7 0 -8 -14 -4 -40 6 -35 4 -40 -12 -40 -16 0
-18 11 -21 90 -3 76 -1 89 11 84 8 -3 18 -1 21 4 3 5 -2 9 -11 8 -11 -1 -19
10 -24 34 -4 19 -6 36 -5 37 1 1 14 -4 29 -12 15 -8 25 -10 22 -5 -3 4 1 10 7
13 8 2 9 8 4 13 -5 5 -10 4 -13 -2 -3 -9 -10 -9 -28 0 -16 7 -25 21 -28 46 -2
19 -2 38 0 43 2 4 39 7 81 8 42 0 86 4 97 9 12 5 -16 7 -74 5 -70 -3 -100 -1
-122 11 -36 18 -86 21 -209 13z m220 -147 c12 -141 15 -250 7 -258 -4 -4 -7
15 -8 42 0 27 -4 58 -8 69 -5 12 -7 -8 -5 -47 l4 -68 -30 27 c-35 31 -38 43
-10 43 18 0 20 6 19 73 0 39 -4 109 -7 155 -4 46 -6 85 -4 87 3 2 11 -3 19
-11 10 -9 18 -49 23 -112z m-223 -348 c-7 -7 -168 -6 -175 1 -3 3 37 5 88 5
51 0 91 -3 87 -6z" />
		<path d="M1375 3280 c6 -30 14 -40 35 -40 13 0 17 5 14 14 -3 8 -12 12 -19 10
-7 -3 -16 -1 -20 5 -4 7 3 11 17 11 18 0 20 2 8 10 -24 16 -39 11 -35 -10z" />
		<path d="M2572 3218 l2 -83 3 70 c2 38 9 75 15 82 8 10 6 13 -6 13 -14 0 -16
-12 -14 -82z" />
		<path d="M1307 3282 c-15 -3 -16 -7 -6 -18 6 -8 9 -17 6 -20 -8 -8 18 -34 33
-34 17 0 40 -26 32 -36 -4 -5 -3 -6 2 -2 5 4 17 -3 27 -15 l18 -22 -5 28 c-4
27 -3 28 25 25 21 -2 35 4 46 17 17 20 17 20 9 0 -4 -11 -9 -35 -12 -53 -2
-18 -8 -35 -13 -38 -15 -9 -10 -41 7 -48 11 -4 15 -17 13 -51 -2 -25 2 -50 9
-57 9 -9 11 9 7 80 -2 51 -7 97 -10 102 -3 6 -1 10 4 10 6 0 10 3 10 8 -4 22
2 42 11 37 6 -3 10 -2 10 3 0 14 -29 36 -37 28 -3 -3 -14 1 -24 10 -11 10 -19
12 -24 4 -3 -6 -3 -9 2 -8 4 2 9 -1 11 -7 1 -5 -6 -10 -15 -10 -10 0 -23 -6
-28 -13 -19 -24 -44 -2 -51 46 -4 26 -9 41 -12 34 -2 -8 -8 -9 -15 -4 -7 5
-20 7 -30 4z" />
		<path d="M1734 3254 c-6 -19 -7 -37 -3 -40 5 -3 5 -14 -1 -24 -5 -10 -10 -28
-10 -39 0 -16 -6 -21 -27 -21 -16 0 -35 -5 -43 -11 -11 -8 -5 -9 23 -4 32 5
40 2 61 -22 20 -22 27 -26 37 -15 11 10 10 12 -2 12 -11 0 -14 17 -12 95 3
100 -6 125 -23 69z" />
		<path d="M1612 3227 c-6 -12 -12 -35 -14 -52 -3 -26 0 -30 20 -28 12 2 22 -2
22 -7 0 -6 9 -6 23 -1 12 5 27 10 32 12 6 2 9 9 7 15 -1 7 2 15 8 19 19 12 10
35 -14 35 -13 0 -27 6 -29 13 -3 6 -6 1 -6 -12 -1 -13 7 -30 17 -37 15 -12 15
-15 2 -24 -23 -15 -35 -6 -32 23 2 15 -3 36 -11 47 -14 20 -14 20 -25 -3z" />
		<path d="M2458 3233 c-2 -10 -1 -31 3 -48 8 -34 9 -33 13 11 4 37 -9 66 -16
37z" />
		<path d="M52 3234 c7 -7 179 -7 186 1 3 3 -39 5 -93 5 -54 0 -96 -3 -93 -6z" />
		<path d="M1175 3211 c3 -6 -5 -19 -17 -30 -12 -12 -18 -21 -13 -21 5 0 0 -7
-11 -16 -10 -8 -13 -13 -6 -9 6 3 12 1 12 -4 0 -23 19 -10 29 20 6 17 14 28
18 26 5 -3 9 6 9 19 1 15 -4 24 -13 24 -8 0 -12 -4 -8 -9z" />
		<path d="M2663 3160 c0 -36 2 -50 4 -32 2 17 2 47 0 65 -2 17 -4 3 -4 -33z" />
		<path d="M119 3161 c-50 -47 -65 -73 -52 -95 4 -5 10 1 15 14 l9 23 37 -34 37
-34 -32 34 -32 34 41 49 c23 26 39 51 36 53 -3 3 -29 -16 -59 -44z" />
		<path d="M1232 3176 c2 -25 9 -41 18 -43 11 -4 12 -2 2 5 -7 5 -10 16 -7 25 4
9 2 24 -4 34 -9 15 -11 11 -9 -21z" />
		<path d="M2400 3180 c0 -24 -4 -30 -17 -28 -10 2 -24 10 -30 18 -11 13 -14 13
-23 0 -5 -8 -9 -19 -9 -25 0 -5 3 -4 6 2 3 10 8 9 20 -2 8 -8 19 -13 24 -10 5
4 9 1 9 -5 0 -6 4 -9 9 -6 5 4 12 0 14 -6 3 -7 6 11 6 40 1 28 -1 52 -4 52 -3
0 -5 -14 -5 -30z" />
		<path d="M13 3153 c1 -50 15 -99 18 -63 1 8 0 20 -1 25 -2 6 -6 28 -11 50 -7
39 -7 39 -6 -12z" />
		<path d="M200 3196 c0 -4 10 -25 23 -46 21 -38 37 -51 37 -31 0 5 3 16 6 25 4
10 1 16 -7 16 -7 0 -23 10 -36 22 -13 12 -23 18 -23 14z" />
		<path d="M1856 3176 c-28 -24 -28 -24 -6 -31 13 -4 27 -2 34 5 8 10 7 12 -6 7
-22 -8 -23 1 -1 25 22 25 14 22 -21 -6z" />
		<path d="M2072 3191 c-8 -5 -13 -11 -13 -15 2 -17 0 -17 -16 -5 -16 13 -17 12
-4 -3 12 -16 11 -18 -3 -18 -9 0 -16 5 -16 12 0 22 -18 -6 -25 -39 -4 -21 -3
-33 4 -33 11 0 15 13 12 38 -1 6 9 12 22 12 13 0 32 9 41 19 20 22 18 45 -2
32z" />
		<path d="M2922 3183 c-2 -22 -22 -43 -22 -24 0 6 -3 11 -7 11 -10 0 -8 -89 2
-98 5 -4 5 -1 1 6 -4 7 -2 12 6 12 10 0 13 -13 11 -42 l-2 -43 10 40 c5 22 8
67 6 100 -2 33 -4 50 -5 38z" />
		<path d="M2962 3160 c0 -19 -2 -56 -5 -82 -3 -34 0 -48 8 -48 7 0 15 9 18 20
3 13 0 20 -10 20 -8 0 -11 5 -7 11 12 20 16 78 5 96 -8 15 -10 12 -9 -17z" />
		<path d="M182 3120 c0 -55 1 -61 10 -37 6 18 7 40 0 65 -9 35 -10 33 -10 -28z" />
		<path d="M290 3115 c0 -17 4 -45 10 -63 7 -27 6 -33 -4 -29 -22 9 -27 -4 -11
-27 8 -11 15 -41 15 -66 0 -72 8 -90 39 -89 23 2 24 2 4 6 -20 4 -23 11 -23
46 0 23 -4 57 -9 75 -16 53 4 36 33 -28 15 -33 29 -60 31 -60 6 0 -25 81 -36
95 -4 6 -13 39 -19 75 -15 78 -29 109 -30 65z" />
		<path d="M310 3134 c0 -3 12 -28 28 -55 33 -60 62 -65 92 -16 21 34 25 47 12
47 -4 0 -13 -13 -19 -29 -14 -39 -43 -32 -79 20 -26 38 -34 46 -34 33z" />
		<path d="M1038 3091 c-31 -31 -41 -47 -28 -44 10 3 21 12 24 20 3 8 11 11 17
7 7 -4 9 -3 6 3 -4 6 3 22 14 37 31 39 19 31 -33 -23z" />
		<path d="M670 3111 c0 -9 -10 -11 -33 -7 -28 5 -33 3 -33 -14 0 -11 6 -22 14
-25 7 -2 10 0 7 5 -3 6 5 10 18 10 23 0 45 26 32 38 -3 3 -5 0 -5 -7z" />
		<path d="M2305 3113 c-11 -3 -25 -10 -32 -15 -7 -5 -17 -7 -23 -3 -5 3 -10 3
-10 -2 0 -12 -75 -33 -119 -33 -22 0 -42 -4 -45 -8 -8 -13 91 -3 148 14 26 8
50 13 53 11 8 -9 -86 -57 -100 -51 -8 3 -18 0 -22 -6 -6 -9 -10 -9 -16 1 -6
11 -11 11 -21 1 -15 -15 -32 -16 -22 0 5 8 2 9 -9 5 -10 -3 -17 -2 -17 3 0 19
-27 10 -54 -19 -32 -33 -35 -32 49 -16 17 3 42 7 58 9 15 2 30 6 34 10 9 9 25
7 19 -3 -10 -16 49 2 72 22 13 12 22 16 22 8 0 -7 5 -9 11 -5 8 4 7 9 -2 15
-13 8 -5 13 14 10 5 -1 6 8 2 19 -4 14 -2 20 9 20 8 0 18 5 21 10 3 6 5 9 3 9
-2 -1 -12 -4 -23 -6z" />
		<path d="M1562 3078 c-2 -9 -12 -18 -23 -21 -11 -3 -19 -14 -19 -26 0 -17 4
-20 24 -15 15 3 29 -1 40 -11 9 -10 18 -16 20 -14 14 16 25 50 20 62 -7 20 11
30 38 21 l22 -7 -22 -17 c-26 -22 -27 -26 -6 -34 11 -4 15 -2 11 8 -3 8 1 20
9 27 12 10 18 9 32 -6 13 -13 14 -19 4 -22 -6 -3 -10 -9 -6 -14 9 -15 24 -10
25 9 0 10 3 12 6 5 2 -7 9 -13 14 -13 5 0 -1 18 -13 40 -16 28 -28 38 -40 34
-9 -2 -19 0 -22 5 -4 6 -30 9 -58 8 -38 -1 -52 -6 -56 -19z m48 -29 c0 -12
-29 -24 -37 -16 -3 4 -3 13 0 21 6 16 37 11 37 -5z" />
		<path d="M1890 3093 c-19 -3 -41 -10 -48 -16 -7 -6 -25 -12 -39 -13 -43 -5
-46 -21 -4 -29 12 -2 19 0 16 5 -3 5 6 12 20 16 13 3 22 10 19 15 -3 5 11 9
30 9 19 0 38 5 41 10 3 6 5 9 3 8 -2 0 -19 -3 -38 -5z" />
		<path d="M2343 3071 c-6 -10 -8 -22 -3 -27 5 -5 -4 -24 -20 -44 l-29 -35 9 35
c13 47 12 50 -6 17 -8 -16 -20 -25 -26 -21 -7 5 -8 2 -3 -6 6 -10 4 -12 -8 -7
-11 4 -24 -6 -45 -36 -44 -66 -47 -75 -15 -39 16 17 35 32 40 32 6 0 14 7 17
16 4 12 13 14 32 10 17 -5 37 0 60 13 19 11 34 18 34 15 0 -12 -35 -64 -43
-64 -4 0 -7 -6 -5 -14 2 -8 -14 -32 -35 -55 -42 -46 -32 -55 17 -15 44 38 95
183 55 159 -5 -4 -9 1 -9 9 0 8 5 18 10 21 6 3 10 11 10 17 0 6 -6 5 -16 -3
-13 -11 -14 -9 -9 14 8 32 4 34 -12 8z" />
		<path d="M2390 3069 c0 -16 5 -20 20 -16 11 3 23 1 26 -4 3 -5 -4 -9 -15 -9
-11 0 -22 -4 -26 -9 -3 -6 7 -9 21 -8 17 2 30 10 35 24 8 23 -3 39 -21 28 -5
-3 -10 -1 -10 4 0 6 -7 11 -15 11 -9 0 -15 -9 -15 -21z" />
		<path d="M1997 3068 c2 -5 -3 -8 -11 -8 -8 0 -18 -5 -21 -11 -4 -5 10 -3 30 5
20 9 41 13 46 10 5 -3 16 -1 25 4 11 6 2 8 -29 8 -25 -1 -43 -4 -40 -8z" />
		<path d="M1905 3060 c-4 -6 -21 -17 -38 -24 -24 -11 -27 -15 -12 -15 11 -1 34
10 50 24 17 13 25 24 18 25 -6 0 -15 -5 -18 -10z" />
		<path d="M17 3030 c3 -12 14 -20 27 -20 17 0 19 -2 6 -11 -9 -6 -11 -12 -5
-15 6 -2 10 -21 8 -42 -2 -34 -1 -33 12 13 22 81 20 90 -19 92 -30 3 -33 0
-29 -17z" />
		<path d="M175 3041 c-3 -5 2 -22 10 -37 8 -17 15 -56 15 -91 0 -34 5 -65 10
-68 6 -4 10 25 10 79 0 56 -4 86 -11 86 -6 0 -9 6 -6 14 6 16 -19 30 -28 17z" />
		<path d="M560 3020 c6 -11 7 -20 3 -20 -4 0 -2 -5 4 -11 8 -8 17 -8 32 0 14 8
21 8 21 1 0 -5 5 -10 10 -10 6 0 5 8 -2 20 -8 12 -15 15 -19 8 -9 -15 -39 -2
-39 17 0 8 -5 15 -10 15 -7 0 -7 -6 0 -20z" />
		<path d="M2005 3030 c-4 -6 -10 -8 -15 -5 -5 3 -21 -6 -36 -20 -35 -33 -54
-32 -23 1 23 24 20 24 -35 -8 -64 -37 -106 -71 -106 -88 0 -7 6 -5 15 3 30 31
91 62 123 63 23 0 43 11 65 32 17 18 29 32 25 32 -4 0 -10 -5 -13 -10z" />
		<path d="M2437 3010 c-24 -28 -22 -30 18 -17 20 6 34 15 32 21 -6 19 -32 17
-50 -4z" />
		<path d="M1780 3011 c0 -5 10 -9 23 -8 12 0 31 -3 42 -7 20 -8 20 -7 1 8 -21
17 -66 22 -66 7z" />
		<path d="M777 2993 c-9 -2 -15 -9 -12 -14 4 -5 1 -9 -4 -9 -6 0 -11 -19 -11
-42 l1 -43 16 35 c9 19 15 39 14 44 -1 4 4 14 10 22 6 8 10 13 8 13 -2 -1 -12
-3 -22 -6z" />
		<path d="M2165 2982 c-21 -12 -31 -26 -34 -47 -1 -16 -8 -36 -13 -43 -8 -9 -7
-11 7 -6 12 5 16 4 11 -4 -3 -6 -1 -14 5 -18 8 -4 9 -3 5 4 -4 7 -1 12 6 12
10 0 11 2 0 8 -15 10 -8 35 25 80 13 17 23 32 21 32 -2 -1 -17 -9 -33 -18z" />
		<path d="M2482 2983 c-6 -2 -9 -10 -6 -15 4 -7 2 -8 -5 -4 -6 4 -18 3 -25 -3
-11 -9 -18 -8 -29 3 -13 14 -16 14 -21 0 -9 -22 -8 -23 17 -17 22 6 22 6 -3
-21 -18 -20 -20 -25 -7 -20 9 3 17 10 17 14 0 4 9 10 19 13 11 2 18 0 17 -7
-2 -18 -43 -55 -52 -48 -4 4 -4 1 1 -7 5 -9 3 -12 -6 -9 -7 2 -19 -6 -26 -20
-18 -35 -16 -39 7 -12 22 25 26 20 10 -11 -8 -13 -7 -19 0 -19 6 0 3 -12 -7
-27 -16 -26 -16 -27 0 -14 9 7 22 32 28 54 6 22 22 56 36 74 14 18 22 33 19
33 -4 0 5 16 20 35 25 33 24 40 -4 28z" />
		<path d="M2660 2969 c12 -8 8 -9 -17 -5 -18 3 -33 1 -33 -4 0 -17 21 -22 66
-15 53 8 55 29 3 33 -27 2 -31 0 -19 -9z" />
		<path d="M2054 2916 c-24 -24 -44 -50 -44 -57 0 -9 3 -10 8 -4 4 6 18 16 32
22 14 6 19 12 13 12 -8 1 -5 9 7 21 24 24 34 26 26 4 -3 -9 -2 -12 5 -9 6 4 8
13 5 21 -3 8 -1 14 4 14 6 0 10 5 10 10 0 21 -24 9 -66 -34z" />
		<path d="M1555 2940 c-3 -5 -11 -7 -18 -4 -8 3 -14 -6 -15 -26 -2 -21 2 -30
13 -30 8 0 15 6 15 14 0 11 16 14 70 13 38 -1 70 -6 70 -10 0 -5 4 -6 9 -3 5
4 21 2 35 -3 21 -9 26 -7 32 12 4 12 12 26 18 30 6 5 -2 6 -19 2 -16 -3 -66
-8 -110 -10 -52 -2 -64 -1 -35 3 33 5 40 9 27 15 -26 10 -85 9 -92 -3z" />
		<path d="M1852 2928 c-18 -11 -31 -26 -28 -33 2 -6 0 -18 -5 -26 -7 -11 -9
-11 -9 -1 0 7 -4 10 -10 7 -5 -3 -10 -18 -9 -33 0 -24 1 -25 9 -7 8 18 9 18
10 -5 2 -25 2 -24 10 4 5 15 16 36 24 45 8 9 16 23 18 31 2 8 10 20 18 27 24
19 8 15 -28 -9z" />
		<path d="M2687 2932 c-3 -4 5 -19 17 -35 l22 -27 -4 35 c-4 32 -23 47 -35 27z" />
		<path d="M4 2907 c3 -10 6 -27 6 -38 0 -22 25 -16 35 9 3 9 3 13 -1 10 -3 -4
-15 3 -26 15 -16 18 -19 19 -14 4z" />
		<path d="M823 2910 c-21 -9 -43 -38 -43 -59 0 -6 10 -11 23 -11 18 0 23 -5 23
-21 -1 -12 4 -24 10 -26 7 -2 10 5 7 20 -3 14 0 28 6 31 18 12 12 26 -11 26
l-22 0 22 20 c33 31 28 37 -15 20z" />
		<path d="M2529 2883 c-7 -21 -14 -45 -15 -53 -1 -8 -4 -31 -8 -50 -4 -23 -3
-30 3 -20 5 8 11 31 13 50 1 19 9 41 16 48 11 12 18 62 8 62 -3 0 -10 -17 -17
-37z" />
		<path d="M1950 2890 c-14 -11 -20 -20 -14 -20 5 0 15 5 21 11 8 8 13 8 18 0 3
-6 -2 -14 -12 -18 -10 -4 -21 -11 -25 -17 -5 -7 -8 -6 -8 4 -1 25 -39 -53 -39
-80 0 -20 4 -16 18 18 9 24 19 42 22 40 9 -6 79 55 73 64 -4 6 -10 5 -15 -3
-8 -13 -13 -5 -10 14 1 10 -1 9 -29 -13z" />
		<path d="M2252 2867 c-40 -30 -145 -157 -137 -166 2 -2 20 13 39 34 19 20 39
34 45 31 5 -4 13 4 16 16 4 13 28 44 53 71 53 54 46 61 -16 14z" />
		<path d="M2552 2843 c-19 -70 -17 -124 3 -117 18 7 32 94 17 103 -7 4 -8 12
-2 21 12 18 13 40 2 40 -4 0 -13 -21 -20 -47z" />
		<path d="M2476 2848 c-17 -15 -27 -30 -23 -34 4 -4 3 -12 -2 -18 -4 -6 -11
-20 -14 -31 -7 -20 -7 -20 8 -1 8 11 15 14 15 8 0 -7 5 -12 10 -12 6 0 10 9
10 20 0 11 7 37 15 57 8 20 14 37 13 38 -2 0 -16 -11 -32 -27z" />
		<path d="M2615 2866 c10 -7 26 -33 36 -57 10 -24 18 -37 18 -28 1 29 -21 79
-39 89 -27 15 -37 12 -15 -4z" />
		<path d="M610 2860 c0 -14 26 -23 41 -15 8 6 7 10 -2 16 -19 12 -39 11 -39 -1z" />
		<path d="M2037 2827 c-52 -48 -57 -58 -27 -50 10 3 19 8 18 12 -2 18 3 32 11
27 8 -5 30 15 45 42 12 20 3 14 -47 -31z" />
		<path d="M674 2831 c-11 -14 -38 -57 -59 -96 l-38 -69 1 -120 c1 -66 5 -122 7
-125 3 -2 5 39 5 93 0 68 5 108 17 134 19 44 30 23 15 -32 -8 -29 -6 -104 3
-114 1 -1 5 34 9 79 4 45 14 93 22 108 8 14 13 19 11 11 -16 -56 -17 -65 -3
-35 16 33 40 156 34 178 -2 9 -9 6 -24 -12z" />
		<path d="M30 2841 c0 -5 18 -9 40 -9 22 0 40 3 40 9 0 5 -18 9 -40 9 -22 0
-40 -4 -40 -9z" />
		<path d="M531 2784 c-28 -31 -51 -61 -50 -68 1 -6 -1 -28 -5 -49 -7 -32 -10
-36 -24 -25 -13 12 -14 11 -2 -9 16 -24 30 -21 30 6 0 10 7 24 15 31 10 9 12
17 5 30 -8 14 -1 26 35 59 25 23 57 46 73 52 25 10 26 12 7 19 -31 13 -30 13
-84 -46z" />
		<path d="M1731 2809 c-6 -18 -14 -56 -17 -83 -7 -61 16 -100 53 -90 29 8 35
27 19 61 -8 15 -17 39 -20 53 -6 24 -6 24 5 3 7 -13 20 -25 30 -28 11 -4 19
-13 19 -21 0 -20 19 -18 27 3 4 10 1 19 -6 21 -7 2 -23 16 -35 29 -11 14 -29
29 -40 35 -17 9 -18 7 -12 -38 4 -27 9 -56 12 -64 2 -10 -3 -16 -14 -17 -14
-1 -17 8 -19 50 -1 29 3 65 9 80 6 15 8 30 6 33 -3 3 -11 -10 -17 -27z" />
		<path d="M1487 2823 c-4 -3 -7 -15 -7 -25 0 -10 -20 -39 -45 -65 -44 -45 -50
-67 -27 -108 3 -5 7 -27 8 -50 1 -22 5 -58 8 -80 3 -24 2 -35 -3 -26 -5 7 -15
11 -22 9 -8 -3 -20 2 -26 11 -11 14 -14 14 -23 1 -8 -13 -10 -13 -10 2 0 10
-9 22 -20 28 -17 9 -20 8 -20 -10 0 -13 -4 -18 -11 -14 -7 4 -9 -2 -7 -17 4
-30 42 -38 68 -14 17 16 19 15 29 -3 6 -11 7 -22 4 -26 -3 -3 -1 -6 6 -6 7 0
11 -8 9 -17 -1 -10 1 -24 6 -32 5 -7 12 -45 17 -85 5 -39 11 -80 13 -91 3 -11
5 -30 5 -43 1 -15 5 -21 12 -16 8 5 10 -3 7 -24 -2 -17 -1 -29 4 -26 4 3 8 -2
8 -11 0 -9 -5 -13 -10 -10 -6 4 -9 3 -8 -2 4 -14 -13 -53 -23 -53 -5 0 -13
-10 -18 -22 -7 -20 -12 -12 -30 50 -13 41 -25 71 -29 68 -10 -10 -10 -50 0
-62 5 -7 10 -20 12 -30 2 -11 5 -23 7 -29 6 -20 -13 -55 -30 -55 -9 0 -26 -8
-37 -18 -21 -20 -55 -25 -65 -9 -4 5 -9 5 -13 -2 -4 -6 -2 -11 5 -11 8 0 7 -5
-2 -17 -13 -16 -12 -17 4 -4 9 7 17 9 17 3 0 -5 -7 -12 -15 -16 -8 -3 -15 -12
-15 -21 0 -8 -7 -15 -17 -15 -14 0 -14 2 2 20 16 18 16 20 1 26 -9 3 -22 1
-29 -4 -18 -15 -137 -26 -184 -17 -32 6 -35 9 -18 15 11 5 47 9 80 9 33 1 67
6 75 11 11 7 2 8 -27 4 -24 -4 -43 -4 -43 0 0 3 18 15 40 26 58 30 49 32 -17
5 -32 -12 -91 -29 -131 -36 -55 -10 -71 -17 -67 -27 4 -10 0 -13 -15 -9 -11 3
-20 1 -20 -3 0 -5 -8 -10 -17 -12 -9 -2 50 -3 130 -3 142 0 176 -6 121 -19
-15 -4 -24 -9 -22 -11 10 -10 63 13 62 27 -1 8 4 15 10 15 6 0 25 4 41 8 27 8
29 7 16 -8 -7 -10 -18 -17 -23 -17 -5 0 -21 -9 -36 -20 -27 -20 -33 -20 -143
-9 -63 6 -129 12 -146 13 -18 1 -33 5 -33 9 0 10 -73 1 -152 -19 -105 -26
-229 -16 -234 19 -2 13 3 16 14 13 38 -11 113 -15 134 -7 18 7 8 10 -47 15
-38 4 -79 8 -89 9 -11 1 -20 10 -22 20 -2 14 2 16 19 10 12 -4 35 -6 51 -5 17
1 34 -5 41 -14 10 -14 26 -15 121 -8 99 7 105 8 64 16 -25 5 -56 6 -69 3 -13
-4 -56 -1 -95 5 -106 17 -116 20 -116 28 0 4 54 4 120 0 116 -8 177 -2 278 28
15 4 22 2 22 -8 0 -9 -24 -19 -72 -30 l-73 -16 85 5 c156 9 299 51 294 86 -1
9 1 15 6 12 11 -7 83 47 157 120 66 66 83 76 83 51 0 -8 5 -18 11 -22 9 -5 10
4 4 32 -11 64 -20 70 -39 31 -18 -38 -91 -107 -113 -107 -8 0 -12 -4 -8 -9 5
-9 -108 -86 -126 -86 -4 0 -11 -4 -16 -9 -5 -5 -3 -6 5 -2 18 11 14 -9 -5 -25
-38 -30 -68 -41 -125 -46 -49 -5 -58 -3 -58 11 0 13 11 16 61 16 33 0 58 4 55
9 -4 5 2 7 13 4 10 -3 22 0 26 7 10 16 -123 6 -255 -20 -85 -16 -340 -5 -340
15 0 11 38 13 183 12 154 -2 189 1 228 16 32 12 49 25 52 40 5 19 4 20 -6 6
-18 -24 -103 -38 -262 -43 -151 -5 -205 0 -205 18 0 8 48 12 158 13 183 3 287
15 312 38 18 17 33 75 19 75 -5 0 -11 -15 -14 -33 l-7 -34 -151 -12 c-254 -21
-329 -16 -307 19 7 12 15 12 42 3 32 -11 82 -9 321 13 70 6 98 16 84 30 -2 3
-51 0 -108 -6 -233 -24 -281 -24 -319 -1 -19 11 -30 21 -23 21 8 0 8 6 0 25
-11 23 -12 22 -20 -23 -9 -56 12 -453 24 -467 14 -14 11 -35 -7 -53 -12 -12
-13 -17 -4 -20 7 -3 16 1 20 7 5 9 24 8 74 -5 45 -11 63 -20 54 -25 -9 -6 -6
-9 12 -10 14 0 51 -4 83 -8 41 -5 57 -4 57 5 0 12 -44 24 -94 24 -20 0 -26 3
-18 8 13 9 -28 24 -100 37 -21 4 -42 13 -48 20 -17 20 82 6 189 -26 51 -16
113 -29 137 -29 44 0 66 -13 38 -24 -9 -3 -34 -6 -56 -6 -29 0 -39 -4 -35 -13
11 -28 -26 -34 -128 -22 -64 8 -104 9 -112 3 -7 -5 -16 -7 -21 -5 -4 3 -14 2
-22 -4 -11 -6 -7 -9 15 -10 l30 -1 -35 -10 c-19 -5 -58 -8 -87 -6 -29 2 -53 0
-53 -4 0 -5 42 -8 94 -8 71 0 97 4 106 15 8 9 29 15 56 15 45 0 72 -18 32 -22
-13 -1 71 -5 187 -8 116 -3 216 -2 224 1 18 8 56 -25 46 -40 -3 -6 -11 -9 -16
-5 -6 3 -9 0 -8 -7 2 -8 -2 -24 -9 -36 -9 -16 -9 -29 -1 -52 9 -27 8 -35 -6
-51 -10 -11 -14 -20 -9 -20 5 0 15 9 22 20 25 40 32 9 7 -33 -48 -82 -57 -99
-46 -93 6 4 27 36 47 71 19 36 40 67 45 71 5 3 7 9 4 13 -2 5 4 16 15 26 19
18 20 17 20 -8 0 -14 -4 -29 -10 -32 -5 -3 -17 -23 -27 -43 -9 -20 -22 -40
-27 -44 -7 -5 -7 -8 1 -8 7 0 24 21 37 48 37 70 49 83 43 50 -4 -27 7 -40 15
-16 5 15 27 1 36 -23 5 -12 12 -15 20 -10 17 10 5 61 -13 61 -24 0 -71 48 -90
92 -11 24 -27 54 -37 67 -12 16 -18 41 -18 81 0 49 5 65 34 107 18 26 36 58
40 69 3 11 30 32 61 47 30 14 61 38 70 51 9 14 38 36 63 48 55 28 92 58 92 75
0 6 22 36 48 67 43 49 47 58 44 95 -2 23 -7 39 -11 37 -3 -2 -5 13 -3 35 3 29
1 38 -9 36 -8 -2 -11 -2 -6 0 4 3 7 19 7 36 0 24 -3 28 -10 17 -5 -8 -10 -13
-11 -10 -9 51 -9 54 1 40 8 -13 10 -12 10 3 0 9 -4 17 -8 17 -4 0 -8 17 -8 38
-1 38 -11 157 -14 157 -3 0 -7 31 -14 104 l-7 74 32 -19 c18 -11 33 -28 35
-39 4 -34 29 -90 41 -92 6 -1 9 6 6 16 -7 26 14 36 27 12 7 -13 7 -22 0 -26
-13 -8 -13 -25 -1 -25 5 0 12 8 14 18 4 15 9 -13 12 -75 1 -33 12 -38 26 -12
9 17 9 24 0 27 -6 2 -11 12 -11 22 0 21 -46 116 -60 125 -6 3 -9 -3 -7 -14 1
-11 -2 -21 -8 -23 -5 -2 -10 10 -10 26 -1 29 -45 76 -72 76 -7 0 -13 5 -13 10
0 19 81 16 140 -5 23 -8 52 -15 64 -15 12 0 33 -7 46 -16 23 -14 23 -14 -2 10
-17 15 -45 27 -75 32 -53 7 -93 37 -69 51 11 7 10 14 -5 38 l-19 30 0 -35 c0
-60 -3 -71 -13 -61 -5 5 -8 28 -5 50 2 23 3 41 2 41 0 0 -4 -3 -7 -7z m-575
-1039 c37 -4 65 -11 62 -16 -5 -8 25 -4 63 7 6 2 13 -1 15 -6 3 -10 25 -4 85
24 13 6 26 7 30 4 3 -4 -1 -7 -10 -7 -9 0 -17 -4 -17 -9 0 -11 -75 -32 -115
-32 -91 -1 -140 3 -239 16 -79 11 -112 12 -122 4 -14 -11 -34 -5 -34 11 0 19
108 20 282 4z m-182 -40 c136 -17 247 -20 325 -9 47 7 49 6 30 -8 -11 -9 -25
-17 -32 -17 -7 0 -23 -11 -35 -23 -29 -29 -117 -42 -182 -27 -25 5 -51 7 -59
4 -8 -3 -18 -1 -22 5 -7 13 6 14 135 15 52 1 103 6 112 11 12 7 -7 10 -67 9
-46 0 -82 3 -80 7 3 3 -23 6 -58 6 -90 0 -293 12 -311 19 -9 3 -23 4 -31 0 -9
-3 -15 0 -15 8 0 19 140 19 290 0z m-230 -35 c10 0 8 -3 -5 -9 -17 -7 -15 -9
12 -9 17 -1 35 4 39 10 9 15 151 6 167 -11 10 -10 -1 -11 -55 -7 -37 2 -66 1
-63 -3 6 -10 -19 -20 -48 -20 -38 0 -114 34 -109 48 3 9 12 12 26 8 11 -3 28
-6 36 -7z m564 -44 c-4 -8 -12 -15 -19 -15 -7 0 -20 -3 -29 -6 -9 -3 -16 -2
-16 3 0 5 12 14 28 20 38 15 42 15 36 -2z m-296 -19 c40 -8 91 -12 113 -9 24
4 39 2 39 -5 0 -6 -3 -12 -7 -15 -5 -2 -1 -2 7 1 49 15 126 5 107 -14 -8 -9
-30 -8 -192 7 -115 11 -131 13 -155 22 -8 3 -28 10 -45 15 -29 10 -29 10 15
11 25 1 78 -5 118 -13z m225 -76 c21 0 36 -4 33 -9 -4 -5 0 -12 6 -15 10 -4
-203 -1 -222 3 -3 1 6 8 20 17 17 10 41 13 75 9 28 -2 67 -5 88 -5z m-28 -59
l70 -7 -54 -8 c-29 -5 -101 -5 -159 -1 -97 7 -104 9 -87 22 16 12 35 13 90 8
39 -4 102 -10 140 -14z m118 -87 c3 -4 -1 -21 -9 -38 -13 -28 -13 -29 0 -12
24 30 32 9 11 -29 -20 -39 -40 -47 -29 -13 6 20 5 21 -9 9 -14 -11 -16 -9 -12
17 6 52 30 84 48 66z" />
		<path d="M1951 2802 c-17 -42 -22 -80 -11 -87 5 -3 10 -1 10 5 0 6 4 9 8 6 4
-2 8 20 8 50 -1 30 -2 54 -2 54 -1 0 -7 -12 -13 -28z" />
		<path d="M554 2755 c-9 -14 -20 -23 -24 -20 -9 6 -25 -33 -17 -41 2 -2 21 16
41 41 21 25 33 45 27 45 -6 0 -18 -11 -27 -25z" />
		<path d="M760 2763 c0 -17 35 -43 58 -43 11 0 23 -8 25 -17 3 -10 5 -2 6 17 1
26 -2 31 -11 22 -18 -18 -35 -15 -58 10 -11 12 -20 17 -20 11z" />
		<path d="M1360 2761 l-25 -7 25 -9 c45 -16 51 -15 40 6 -6 10 -12 19 -13 18
-1 -1 -13 -4 -27 -8z" />
		<path d="M2340 2760 c-1 -8 -2 -22 -1 -30 1 -9 -14 -31 -34 -50 -40 -38 -43
-49 -16 -47 11 0 17 6 14 14 -3 8 3 13 17 13 17 0 21 4 17 20 -3 10 0 21 5 22
5 2 8 19 5 38 -2 19 -5 28 -7 20z" />
		<path d="M218 2753 c28 -2 76 -2 105 0 28 2 5 3 -53 3 -58 0 -81 -1 -52 -3z" />
		<path d="M2026 2724 c-19 -41 -15 -54 9 -30 9 9 13 16 9 16 -3 0 -1 7 6 15 9
10 10 19 3 26 -6 6 -15 -4 -27 -27z" />
		<path d="M421 2727 c-5 -14 -12 -65 -15 -114 -5 -92 -6 -94 23 71 11 64 8 84
-8 43z" />
		<path d="M2413 2745 c3 -6 2 -17 -4 -25 -7 -13 -9 -13 -9 0 -1 9 -6 5 -15 -10
-17 -30 -18 -40 -5 -40 6 0 10 9 10 21 0 11 4 18 9 15 5 -3 14 1 21 10 11 12
11 17 0 27 -7 7 -10 7 -7 2z" />
		<path d="M205 2730 c-49 -3 -79 -7 -66 -8 20 -2 21 -4 11 -17 -9 -11 -32 -15
-81 -15 -45 0 -69 -4 -69 -11 0 -8 17 -10 56 -5 53 6 55 5 39 -11 -13 -12 -14
-18 -5 -21 6 -2 -7 -13 -31 -24 -47 -21 -59 -33 -59 -62 0 -18 1 -18 18 -3 10
9 40 29 68 44 33 19 49 34 49 48 0 31 71 67 120 60 30 -4 46 0 65 15 l25 20
-25 -2 c-14 -1 -65 -5 -115 -8z" />
		<path d="M2447 2705 c-24 -50 -21 -68 4 -21 11 21 19 42 17 48 -2 5 -11 -7
-21 -27z" />
		<path d="M2605 2710 c-4 -16 -4 -34 -1 -39 3 -4 -2 -30 -10 -56 -12 -35 -19
-44 -26 -34 -7 10 -8 7 -6 -12 3 -14 -1 -31 -9 -37 -7 -7 -13 -18 -13 -25 1
-7 9 -1 20 12 11 12 17 27 14 32 -4 8 126 13 341 14 57 0 60 -1 60 -25 1 -14
-5 -31 -13 -39 -11 -11 -11 -15 0 -22 8 -6 14 -3 16 6 2 8 8 15 13 15 5 0 8
20 7 45 0 24 -5 42 -9 39 -4 -2 -10 0 -14 6 -4 6 -12 7 -22 1 -9 -5 -29 -5
-44 -1 -15 5 -29 6 -31 4 -2 -2 -49 -6 -104 -9 -54 -3 -118 -8 -142 -11 l-42
-6 20 48 c14 31 17 50 11 52 -6 2 -11 11 -11 20 0 15 2 15 10 2 7 -11 10 -7
10 18 0 40 -16 42 -25 2z" />
		<path d="M1180 2720 c-12 -7 -8 -10 14 -10 16 0 46 -5 68 -12 33 -10 41 -9 56
5 15 16 15 17 -5 17 -12 0 -23 -5 -25 -12 -3 -8 -11 -7 -28 5 -27 19 -57 22
-80 7z" />
		<path d="M1540 2670 c46 -38 65 -38 22 0 -18 17 -38 30 -44 30 -7 0 3 -13 22
-30z" />
		<path d="M517 2670 c-9 -11 -17 -28 -17 -37 0 -9 -9 -26 -20 -38 -19 -21 -19
-21 0 -21 11 0 20 5 20 10 0 5 7 17 16 27 13 15 31 79 22 79 -2 0 -11 -9 -21
-20z" />
		<path d="M1980 2684 c0 -5 11 -25 25 -44 14 -19 25 -39 25 -45 0 -7 9 -20 20
-30 23 -21 26 -37 5 -29 -9 4 -16 -3 -20 -19 -9 -35 3 -67 24 -67 14 0 17 6
13 25 -2 14 1 31 7 39 8 9 9 21 3 33 -5 10 -20 41 -33 68 -13 28 -27 48 -31
45 -4 -3 -14 4 -22 15 -9 11 -16 15 -16 9z" />
		<path d="M2345 2623 c-9 -18 -25 -38 -36 -43 -18 -10 -18 -13 -4 -33 19 -28
19 -67 -1 -95 -21 -31 -12 -60 31 -102 l35 -34 33 33 c24 25 26 30 10 22 -12
-6 -25 -16 -28 -21 -7 -12 -26 -14 -24 -2 4 22 -3 34 -16 28 -8 -3 -16 0 -16
7 -5 48 -3 67 8 71 7 3 10 12 7 20 -3 8 -1 17 5 21 15 9 14 26 -1 23 -19 -4
-16 64 3 82 9 8 21 24 27 36 9 16 8 21 -3 21 -8 0 -21 -15 -30 -34z" />
		<path d="M150 2609 c0 -9 18 -52 40 -96 55 -107 60 -134 62 -303 1 -96 -5
-177 -18 -255 -12 -71 -37 -171 -45 -180 -5 -5 -9 -17 -9 -26 0 -10 -5 -30
-11 -46 -6 -15 -10 -29 -10 -31 4 -10 -73 -144 -84 -148 -20 -8 -38 5 -27 19
5 7 13 23 16 37 4 15 -4 6 -19 -20 -15 -25 -31 -46 -36 -48 -5 -2 -9 -10 -9
-18 0 -11 18 -14 80 -14 l80 0 41 81 c39 78 99 230 99 250 0 6 -5 7 -12 3 -7
-4 -8 -3 -4 5 4 6 11 9 15 7 4 -3 20 40 35 95 26 96 26 105 16 202 -6 56 -22
146 -34 200 -22 94 -21 122 3 93 18 -21 51 -164 51 -220 0 -32 4 -46 9 -38 4
8 7 27 5 44 -3 23 0 29 11 25 12 -5 12 -2 3 19 -10 20 -9 27 3 35 11 7 11 9
-4 9 -14 0 -17 5 -12 20 4 12 1 27 -5 35 -7 8 -9 22 -6 31 5 12 2 15 -10 10
-13 -5 -14 -3 -7 6 12 17 11 39 -2 36 -5 -2 -9 -10 -8 -18 1 -8 -8 -3 -19 13
-18 25 -47 40 -33 17 9 -15 -21 -23 -42 -11 -11 5 -25 29 -32 53 -7 24 -17 48
-23 55 -5 7 -8 16 -5 20 3 4 -6 22 -19 38 -17 21 -24 25 -24 14z m129 -209
c-1 -3 3 -15 10 -27 7 -14 8 -23 2 -23 -6 0 -8 -7 -5 -15 4 -8 9 -13 13 -11 3
2 7 -7 7 -20 1 -13 -3 -24 -10 -24 -6 0 -2 -7 8 -15 11 -8 15 -15 10 -15 -11
0 -11 -131 0 -148 29 -47 -22 -253 -114 -461 -27 -63 -48 -117 -45 -119 3 -3
5 -1 5 4 0 6 7 19 15 30 14 17 14 15 0 -13 -8 -18 -19 -32 -23 -31 -4 0 -15
-2 -25 -7 -31 -13 -30 2 6 77 41 86 81 201 101 289 26 115 50 439 36 488 -6
22 -5 31 3 31 7 0 6 5 -3 11 -10 7 -11 9 -2 7 8 -2 12 -6 11 -8z m-33 -702
c-2 -7 -8 -25 -14 -40 -7 -16 -17 -40 -22 -54 -6 -15 -13 -25 -15 -22 -3 3 3
25 14 49 10 24 21 52 24 62 7 20 17 23 13 5z" />
		<path d="M1787 2611 c-17 -6 -16 -8 5 -18 35 -17 81 -26 73 -13 -11 18 -60 38
-78 31z" />
		<path d="M2241 2604 c-6 -11 -11 -13 -11 -6 0 6 -7 12 -15 12 -9 0 -12 -6 -9
-15 8 -19 75 -16 82 4 3 9 0 11 -8 6 -7 -4 -16 -2 -20 5 -6 9 -10 8 -19 -6z" />
		<path d="M1699 2587 c-7 -15 -16 -24 -21 -21 -5 3 -8 2 -7 -3 1 -4 -2 -17 -6
-28 -32 -79 -43 -114 -37 -121 4 -4 -2 -4 -13 0 -17 6 -18 5 -7 -6 11 -11 17
-8 36 13 18 21 24 23 35 12 6 -7 9 -18 6 -23 -7 -11 13 -34 30 -36 6 -1 25 -4
43 -8 19 -3 31 -2 27 3 -3 5 -23 12 -45 16 -34 6 -40 11 -40 31 0 19 5 24 25
24 18 0 25 -5 25 -19 0 -11 5 -23 12 -27 8 -5 9 0 4 17 -4 13 -8 30 -8 37 -1
6 -7 12 -14 12 -7 0 -20 3 -30 7 -12 4 -15 3 -10 -5 9 -16 -7 -15 -22 0 -18
18 -15 45 7 67 11 11 17 22 14 25 -4 3 1 6 10 6 9 0 21 9 27 20 13 25 3 26
-24 3 -20 -17 -20 -17 -7 0 8 9 11 20 8 24 -4 3 -12 -6 -18 -20z" />
		<path d="M520 2582 c0 -10 -5 -23 -11 -29 -14 -14 -8 -35 7 -25 14 9 26 72 14
72 -6 0 -10 -8 -10 -18z" />
		<path d="M1632 2551 c-1 -32 1 -40 7 -26 18 45 21 72 7 72 -9 0 -13 -15 -14
-46z" />
		<path d="M2166 2545 c-23 -38 -30 -44 -42 -34 -12 10 -13 9 -8 -4 10 -27 34
-29 44 -3 5 13 18 33 29 43 12 12 17 23 12 32 -6 9 -16 -1 -35 -34z" />
		<path d="M840 2570 c0 -6 9 -20 20 -32 11 -12 20 -32 20 -45 0 -13 5 -23 10
-23 6 0 22 -11 35 -25 14 -13 25 -21 25 -17 0 4 5 0 10 -8 6 -9 10 -10 10 -3
0 7 -9 17 -20 23 -10 6 -35 39 -55 75 -34 60 -55 81 -55 55z" />
		<path d="M1785 2564 c-4 -10 -11 -27 -16 -37 -9 -17 -8 -17 21 -2 27 14 30 18
19 33 -8 9 -15 19 -16 21 -1 2 -5 -5 -8 -15z" />
		<path d="M80 2554 c0 -6 -11 -17 -25 -24 -31 -16 -22 -32 13 -24 38 9 44 17
27 40 -8 10 -15 14 -15 8z" />
		<path d="M445 2548 c-2 -7 -9 -30 -15 -50 -6 -21 -15 -38 -19 -38 -4 0 -7 -21
-6 -47 l0 -48 57 -3 c43 -2 57 1 61 13 5 12 -3 15 -43 15 -38 0 -50 4 -50 15
0 11 12 15 51 15 67 0 62 23 -7 31 -27 3 -43 7 -36 7 7 1 11 6 8 11 -3 5 3 11
14 14 11 3 20 13 20 22 0 9 -4 14 -9 11 -4 -3 -6 6 -3 19 4 26 -15 36 -23 13z" />
		<path d="M2888 2532 c-9 -9 -36 -35 -60 -58 -23 -22 -62 -61 -86 -87 -23 -26
-46 -47 -51 -47 -5 0 -14 -7 -21 -15 -21 -25 -34 -17 -16 10 21 31 21 57 0 27
-17 -25 -64 -30 -64 -7 0 8 4 15 9 15 13 0 71 62 65 71 -2 4 0 10 6 14 5 3 10
10 10 15 0 5 -19 -11 -41 -35 -23 -25 -46 -45 -51 -45 -5 0 -39 -13 -74 -30
l-65 -30 18 -24 c10 -13 22 -22 26 -19 5 3 39 7 75 10 l67 4 51 -48 c28 -26
56 -57 62 -68 9 -18 24 -21 124 -25 108 -5 113 -6 116 -27 2 -13 -2 -23 -8
-23 -6 0 -8 -5 -5 -10 13 -20 25 2 25 46 0 42 -12 59 -23 32 -4 -10 -8 -10
-15 0 -6 9 -27 13 -58 12 -86 -3 -148 0 -141 6 4 4 32 7 64 6 34 0 62 5 70 13
21 21 -1 26 -41 10 -39 -17 -60 -19 -52 -7 3 4 -8 7 -23 6 -21 -1 -30 4 -40
27 -7 16 -18 29 -26 29 -7 0 -17 6 -23 13 -8 9 -3 21 21 45 71 72 108 103 117
97 6 -3 7 1 4 10 -4 10 -2 14 8 10 8 -3 21 7 31 25 21 35 42 41 32 9 -5 -14
-3 -20 5 -17 6 2 11 6 10 8 -1 3 3 17 9 32 8 21 7 27 -5 32 -18 7 -15 8 -36
-12z" />
		<path d="M2656 2525 c-3 -8 -19 -18 -37 -22 -17 -3 -27 -9 -22 -12 12 -9 15
-34 3 -26 -5 3 -10 1 -10 -4 0 -6 -9 -11 -20 -11 -11 0 -20 -4 -20 -10 0 -5 8
-7 18 -4 14 5 14 4 2 -4 -8 -6 -17 -9 -21 -6 -4 2 -10 0 -13 -5 -7 -11 41 -24
55 -16 5 4 7 10 4 15 -3 5 6 17 20 26 14 9 25 23 25 30 0 8 4 14 9 14 5 0 11
10 14 22 7 26 2 36 -7 13z" />
		<path d="M2703 2523 c-23 -8 -14 -21 10 -16 l22 5 -21 -16 c-29 -21 -36 -52
-15 -68 14 -12 15 -11 2 4 -11 15 -11 19 5 25 37 13 76 45 66 55 -11 11 -51
17 -69 11z" />
		<path d="M164 2478 c3 -24 12 -83 20 -133 12 -83 13 -121 1 -232 -8 -82 12
-42 24 45 13 106 14 202 2 202 -5 0 -7 9 -4 20 3 11 1 20 -4 20 -5 0 -10 8
-11 18 -1 9 -3 33 -6 52 -2 19 -5 38 -5 43 -1 4 -6 7 -12 7 -8 0 -10 -14 -5
-42z" />
		<path d="M1477 2513 c-10 -16 6 -133 31 -233 11 -41 23 -99 27 -128 l7 -53 32
26 c28 23 103 62 165 86 l24 10 -23 24 c-16 18 -24 38 -24 65 -1 22 -4 40 -8
40 -5 0 -13 0 -19 0 -6 0 -7 -5 -2 -12 4 -7 8 -34 10 -59 2 -43 0 -48 -27 -59
-16 -7 -36 -10 -45 -6 -9 3 -15 0 -15 -9 0 -8 8 -15 18 -15 14 0 15 -2 2 -10
-21 -14 -40 -12 -37 3 1 6 -5 11 -14 10 -12 -2 -15 6 -13 40 4 53 -4 80 -20
74 -9 -4 -12 3 -9 21 3 17 1 23 -4 15 -6 -9 -12 0 -20 27 -6 23 -6 43 -2 46
14 9 10 34 -5 34 -10 0 -16 13 -18 38 -2 23 -6 32 -11 25z" />
		<path d="M2193 2483 c22 -26 22 -28 -8 -28 -14 0 -25 4 -25 9 0 11 -29 -25
-30 -36 0 -15 84 0 95 16 12 20 -4 49 -31 55 -18 3 -18 2 -1 -16z" />
		<path d="M104 2476 c-13 -14 18 -96 37 -96 8 0 8 4 1 13 -11 13 -12 17 -12 43
0 9 -5 12 -12 8 -10 -6 -10 -5 -1 7 15 19 3 42 -13 25z" />
		<path d="M620 2474 c0 -43 34 -118 72 -156 22 -22 42 -37 45 -35 6 7 -27 57
-38 57 -13 0 -41 47 -61 104 -9 28 -17 42 -18 30z" />
		<path d="M1163 2467 c-10 -12 -25 -30 -32 -39 -21 -27 4 -22 33 7 14 14 32 25
41 25 22 0 19 25 -4 27 -10 1 -27 -8 -38 -20z" />
		<path d="M2482 2446 c-16 -19 -34 -32 -38 -28 -4 4 -4 1 0 -6 6 -10 17 -4 42
24 19 20 33 39 31 41 -3 2 -18 -12 -35 -31z" />
		<path d="M3 2393 c4 -10 18 -52 32 -93 15 -41 31 -103 36 -138 5 -35 18 -80
30 -100 19 -36 20 -36 14 -7 -4 17 -15 74 -26 128 -10 55 -31 124 -45 155 -15
32 -26 60 -26 65 1 4 -3 7 -9 7 -6 0 -9 -8 -6 -17z" />
		<path d="M1294 2393 c-12 -11 -18 -28 -16 -41 2 -13 -4 -32 -14 -43 -17 -18
-17 -21 -1 -36 16 -16 17 -16 17 0 0 17 15 23 23 9 7 -11 -25 -47 -48 -55 -11
-3 -74 -27 -140 -52 -66 -26 -135 -50 -153 -52 -19 -3 -37 -14 -43 -25 -10
-18 -8 -19 13 -12 12 4 37 10 53 14 41 10 206 76 281 112 l62 30 -14 46 c-8
26 -12 53 -8 62 8 21 15 60 11 60 -2 0 -13 -8 -23 -17z" />
		<path d="M2466 2388 c-8 -12 -33 -40 -54 -62 -22 -23 -49 -60 -60 -83 -24 -46
-96 -110 -119 -105 -8 2 -12 -1 -9 -6 3 -5 -12 -29 -34 -53 -37 -41 -41 -43
-54 -26 -19 24 -27 21 -20 -7 4 -19 1 -26 -15 -31 -11 -3 -25 -3 -31 0 -5 3
-10 1 -10 -4 0 -20 44 -11 110 22 36 18 65 39 65 47 0 8 6 15 13 15 17 0 110
121 118 153 4 12 10 22 15 22 5 0 3 -15 -4 -32 -8 -18 -12 -39 -10 -45 3 -7 0
-13 -5 -13 -5 0 -12 -7 -16 -15 -10 -26 8 -16 38 22 16 20 24 33 17 28 -13 -8
-13 -7 4 53 4 12 11 20 16 17 5 -4 13 -4 19 0 13 8 0 36 -14 28 -11 -6 13 24
47 59 16 17 23 38 13 38 -3 0 -12 -10 -20 -22z" />
		<path d="M412 2318 c7 -19 108 -24 108 -5 0 10 -16 14 -56 16 -41 1 -55 -2
-52 -11z" />
		<path d="M756 2285 c-3 -8 -2 -15 2 -16 102 -8 162 -27 162 -52 -1 -18 -88
-55 -145 -61 -27 -3 -113 -6 -190 -7 -121 -1 -140 1 -143 15 -3 13 7 16 60 17
l63 1 -40 13 c-22 8 -53 14 -68 14 -18 1 -27 6 -24 14 2 8 19 11 46 9 50 -4
59 22 10 32 -66 13 -69 11 -69 -50 0 -34 5 -61 14 -70 8 -7 16 -17 18 -22 3
-7 62 -5 298 12 83 6 120 14 120 27 0 17 28 9 33 -8 4 -17 5 -17 6 0 0 10 8
28 17 41 14 23 14 25 -18 50 -19 14 -54 28 -78 32 -25 4 -50 11 -56 16 -8 5
-14 3 -18 -7z" />
		<path d="M1210 2273 c-30 -11 -105 -44 -123 -54 -10 -5 -36 -19 -58 -31 -22
-11 -38 -22 -35 -25 2 -2 17 2 33 10 15 8 72 29 125 48 54 19 97 38 95 43 -4
13 -18 16 -37 9z" />
		<path d="M2608 2223 c-20 -23 -51 -84 -45 -89 2 -3 10 9 17 26 7 17 27 42 44
55 20 16 26 25 15 25 -9 0 -23 -8 -31 -17z" />
		<path d="M2950 2233 c0 -7 -6 -10 -14 -7 -7 3 -16 -2 -19 -10 -5 -13 2 -16 36
-16 28 0 37 3 28 9 -7 5 -17 15 -22 22 -6 10 -9 10 -9 2z" />
		<path d="M675 2195 l-40 -13 54 -1 c46 -1 52 1 41 14 -7 8 -13 15 -14 14 0 -1
-19 -7 -41 -14z" />
		<path d="M1808 2205 c-8 -8 14 -95 25 -95 5 0 6 18 2 43 -7 43 -17 62 -27 52z" />
		<path d="M1865 2190 c3 -5 1 -10 -6 -10 -8 0 -8 -4 1 -15 17 -20 29 -19 25 3
-2 9 -4 20 -4 25 -1 4 -6 7 -12 7 -5 0 -7 -4 -4 -10z" />
		<path d="M1890 2196 c0 -17 21 -56 30 -56 19 0 7 55 -12 58 -10 2 -18 1 -18
-2z" />
		<path d="M1964 2163 c3 -21 6 -53 6 -71 0 -22 8 -41 25 -57 25 -26 45 -32 45
-15 0 6 -6 10 -14 10 -8 0 -22 10 -30 22 -20 28 -21 48 -1 22 13 -18 14 -18
15 -1 0 10 -4 26 -9 35 -4 9 -11 30 -15 45 -5 22 -4 27 6 21 10 -6 9 -3 -1 9
-23 28 -34 20 -27 -20z" />
		<path d="M2422 2133 c0 -29 -5 -68 -12 -88 -7 -20 -10 -38 -8 -41 3 -2 15 28
26 68 12 39 20 74 17 76 -3 3 -6 -1 -6 -9 -1 -8 -5 0 -9 16 -6 25 -7 21 -8
-22z" />
		<path d="M1137 2124 c-60 -24 -134 -50 -164 -58 -57 -15 -92 -36 -61 -36 12 0
15 -6 10 -22 -5 -21 -4 -22 11 -9 9 7 17 20 17 27 0 8 8 14 19 14 33 0 248 86
266 106 6 7 17 14 25 17 13 5 13 5 0 6 -8 0 -64 -20 -123 -45z" />
		<path d="M2795 2140 c3 -5 11 -10 17 -10 20 0 68 -42 68 -60 0 -11 14 -35 30
-53 29 -33 41 -65 20 -52 -19 12 -9 -30 13 -56 32 -35 57 -44 57 -19 0 11 -6
20 -14 20 -17 0 -22 15 -21 58 1 17 -2 32 -7 32 -4 0 -8 7 -8 15 0 8 -7 15
-17 15 -9 0 -13 3 -10 7 4 3 2 12 -4 20 -9 10 -8 13 0 13 7 0 9 5 6 10 -3 6 3
10 15 10 12 0 18 5 15 10 -3 6 -17 10 -31 10 -14 0 -37 6 -52 14 -39 19 -85
29 -77 16z" />
		<path d="M1730 2122 c0 -5 11 -19 24 -31 24 -23 25 -23 19 -2 -3 11 -10 21
-15 21 -5 0 -6 5 -3 10 3 6 -1 10 -9 10 -9 0 -16 -4 -16 -8z" />
		<path d="M2542 2072 c-7 -29 -12 -63 -11 -75 0 -12 7 7 15 43 8 36 12 70 10
75 -1 6 -8 -14 -14 -43z" />
		<path d="M1800 2090 c6 -10 9 -23 8 -27 -2 -4 5 -17 15 -28 9 -11 26 -30 36
-41 11 -12 24 -50 30 -85 l10 -64 -4 71 c-3 39 -12 88 -20 110 -13 33 -15 34
-11 9 l5 -30 -13 28 c-6 15 -15 24 -19 21 -4 -4 -12 7 -18 24 -6 18 -15 32
-20 32 -6 0 -5 -8 1 -20z" />
		<path d="M1946 2055 c4 -16 8 -38 8 -47 4 -32 66 -87 66 -58 0 6 -7 10 -16 10
-13 0 -14 3 -5 13 8 11 6 18 -10 33 -12 10 -28 33 -36 49 l-14 30 7 -30z" />
		<path d="M2659 2037 c-79 -72 -99 -113 -116 -228 -3 -24 1 -45 10 -60 9 -13
20 -43 25 -65 8 -36 7 -44 -9 -58 -18 -15 -19 -14 -20 27 -3 97 -17 100 -18 3
-1 -86 1 -97 15 -92 9 3 22 6 30 6 8 0 14 10 14 23 0 23 27 57 46 57 5 0 21
18 36 39 26 36 26 39 7 34 -11 -3 -27 -16 -36 -29 -21 -33 -33 -21 -33 31 0
34 6 50 25 69 26 26 33 56 14 56 -22 0 -54 -55 -59 -100 l-5 -45 -19 47 c-18
46 -18 48 4 120 20 66 29 79 93 140 75 73 72 95 -4 25z" />
		<path d="M10 2062 c0 -18 105 -112 125 -112 5 0 -19 27 -53 60 -62 60 -72 67
-72 52z" />
		<path d="M1060 2040 c-36 -16 -75 -29 -87 -29 -30 -1 -40 -21 -10 -21 37 0
109 28 142 55 37 30 36 30 -45 -5z" />
		<path d="M2780 2061 c0 -5 -11 -12 -25 -15 -32 -8 -136 -106 -113 -106 9 0 30
12 45 26 15 14 22 22 14 18 -10 -5 -12 -3 -7 5 5 7 15 10 23 7 8 -3 11 -2 8 4
-9 15 32 31 75 28 47 -2 63 9 35 25 -26 15 -55 19 -55 8z" />
		<path d="M2240 2046 c-6 -8 -28 -20 -48 -27 -20 -6 -41 -15 -46 -20 -12 -10
43 4 71 19 20 11 50 42 40 42 -2 0 -10 -7 -17 -14z" />
		<path d="M1515 2020 c-18 -7 -17 -9 10 -20 17 -6 47 -20 68 -30 40 -20 50 -14
17 10 -11 8 -20 20 -20 28 0 9 -7 11 -21 7 -12 -4 -24 -3 -28 3 -3 5 -15 6
-26 2z" />
		<path d="M2054 1968 c-3 -5 -2 -8 3 -7 19 3 33 -2 33 -12 0 -5 -4 -7 -10 -4
-5 3 -10 1 -10 -4 0 -6 2 -11 5 -11 9 0 65 30 65 34 0 8 -82 11 -86 4z" />
		<path d="M345 1893 c-22 -101 -77 -249 -126 -340 l-38 -73 62 1 c52 1 57 2 29
9 -39 9 -49 17 -36 30 6 6 28 4 59 -6 50 -15 132 -11 106 5 -8 5 14 13 56 22
l68 13 -49 14 c-44 13 -50 12 -58 -2 -18 -31 -45 -37 -108 -24 -33 6 -60 16
-60 20 0 16 30 20 70 10 47 -12 56 -4 62 50 4 34 1 38 -24 43 -36 8 -46 25
-14 25 13 0 27 -6 30 -12 3 -7 2 55 -1 137 -3 83 -7 151 -8 153 -2 2 -10 -32
-20 -75z m0 -252 c3 -5 -3 -12 -12 -14 -14 -4 -13 -5 4 -6 41 -2 35 -21 -6
-21 -23 0 -41 5 -41 10 0 6 5 10 10 10 6 0 9 3 9 8 -4 22 23 33 36 13z" />
		<path d="M1540 1959 c0 -12 90 -99 102 -99 15 0 33 -46 39 -100 6 -49 7 -46 6
27 -1 45 -3 80 -6 78 -6 -7 -41 26 -36 34 2 4 -6 8 -18 8 -12 1 -34 16 -49 33
-30 32 -38 36 -38 19z" />
		<path d="M1436 1922 c-3 -5 0 -9 7 -9 7 0 27 -3 45 -7 19 -5 32 -4 32 2 0 20
-73 31 -84 14z" />
		<path d="M2511 1884 c0 -21 4 -59 9 -84 7 -36 8 -29 4 35 -5 82 -15 118 -13
49z" />
		<path d="M2804 1911 c7 -10 86 -20 86 -10 0 10 -28 19 -61 19 -17 0 -28 -4
-25 -9z" />
		<path d="M136 1895 c-3 -9 -19 -15 -41 -15 -19 0 -35 -5 -35 -11 0 -7 14 -8
43 -4 51 9 57 12 57 31 0 19 -16 18 -24 -1z" />
		<path d="M2673 1903 c-12 -2 -27 -11 -33 -18 -11 -13 -7 -13 21 -4 19 7 38 16
44 20 9 9 7 10 -32 2z" />
		<path d="M1392 1874 c-18 -7 -32 -14 -32 -16 0 -2 18 -2 39 0 60 6 142 -22
191 -66 32 -28 42 -43 37 -56 -5 -13 -13 -15 -29 -10 -21 6 -21 5 -9 -10 8 -9
21 -14 29 -11 18 7 42 -12 42 -34 0 -18 -77 -77 -88 -67 -3 4 0 17 7 29 9 14
10 22 3 25 -6 2 -8 10 -5 18 3 8 1 14 -5 14 -12 0 -22 -24 -23 -58 0 -16 -3
-21 -6 -12 -8 20 -36 55 -84 107 -25 27 -35 44 -28 49 8 5 6 10 -5 16 -23 13
-28 7 -13 -18 7 -12 22 -39 34 -60 11 -22 34 -49 51 -61 16 -12 38 -41 48 -65
10 -24 32 -55 49 -70 l32 -27 1 34 c2 38 -22 59 -55 49 -16 -5 -16 -4 1 10 14
11 22 13 27 5 4 -8 10 -5 17 6 9 17 10 17 17 -4 4 -12 5 -46 3 -74 -2 -41 0
-52 12 -52 12 0 17 23 23 113 8 127 4 142 -60 213 -41 46 -66 60 -139 82 -43
13 -55 13 -82 1z" />
		<path d="M2694 1859 c-5 -8 11 -10 52 -6 50 5 54 4 24 -4 -19 -6 -46 -19 -60
-29 l-25 -19 49 14 c27 8 81 16 120 16 39 1 85 4 101 8 29 7 29 7 -17 19 -60
15 -234 16 -244 1z" />
		<path d="M2234 1851 c3 -5 -1 -11 -9 -15 -8 -3 -15 -13 -15 -23 1 -15 4 -15
20 6 22 26 25 41 9 41 -5 0 -8 -4 -5 -9z" />
		<path d="M14 1838 c-5 -9 15 -11 56 -8 45 3 40 15 -6 15 -25 0 -48 -3 -50 -7z" />
		<path d="M2376 1789 c-22 -5 -54 -20 -70 -33 -26 -20 -47 -24 -126 -28 -53 -3
-142 1 -199 8 -58 8 -105 12 -106 11 0 -1 -8 -30 -16 -65 -14 -57 -14 -62 0
-60 13 2 15 -5 13 -37 -4 -43 14 -40 20 4 4 31 28 39 35 12 3 -12 10 -21 15
-21 6 0 8 6 5 14 -3 8 0 19 6 24 19 15 47 22 47 12 0 -5 -10 -10 -22 -12 -21
-3 -21 -4 -3 -18 11 -9 16 -10 11 -2 -4 7 -2 12 4 12 6 0 10 -10 8 -22 -2 -15
-9 -22 -20 -20 -11 2 -16 -2 -13 -11 7 -15 76 -49 84 -40 4 3 1 8 -5 10 -30
11 -43 29 -37 56 6 31 19 34 44 11 13 -12 16 -25 12 -47 -4 -21 -3 -28 5 -23
7 4 12 16 12 27 0 15 6 20 23 17 18 -2 23 -10 25 -40 2 -22 -1 -38 -7 -38 -6
0 -11 11 -11 25 0 14 -4 25 -10 25 -5 0 -10 -15 -10 -34 0 -19 5 -38 10 -41 6
-3 10 0 10 7 0 9 3 9 8 2 4 -6 17 -13 30 -17 18 -4 25 0 31 15 7 18 8 19 14 5
4 -10 11 -17 16 -17 7 0 7 9 1 24 -7 20 -5 27 13 40 21 15 21 15 -6 4 -33 -14
-50 2 -44 40 4 19 1 21 -15 16 -24 -7 -105 21 -134 47 -15 14 -29 18 -52 13
-17 -4 -29 -10 -27 -15 3 -4 1 -10 -5 -14 -5 -3 -10 -1 -10 6 0 7 -10 9 -25 7
-26 -5 -35 6 -12 15 7 3 5 6 -5 6 -21 1 -25 21 -5 21 8 0 13 10 13 23 -1 16 5
22 19 22 15 0 19 -6 18 -23 l-3 -23 23 24 c16 18 27 22 42 16 11 -4 35 -8 53
-8 25 -1 32 -5 32 -21 0 -16 -4 -18 -22 -12 -13 5 -39 5 -58 1 -21 -4 -26 -7
-13 -8 12 0 25 -6 28 -11 4 -6 11 -7 17 -4 6 4 39 8 74 10 51 2 68 -2 88 -17
17 -14 33 -18 50 -13 24 6 26 3 26 -25 0 -17 4 -31 8 -31 13 0 1 58 -14 71
-17 14 0 41 20 33 8 -3 21 12 34 39 20 43 49 66 61 50 9 -12 31 -14 31 -3 0 6
4 10 9 10 18 0 33 -72 27 -124 -3 -34 -2 -44 4 -31 6 15 9 6 8 -35 0 -30 -5
-61 -11 -68 -21 -27 3 -23 27 4 26 31 26 25 0 169 -24 129 -18 123 -98 104z
m-82 -82 c-12 -29 -72 -46 -137 -38 -5 1 -7 8 -5 18 2 12 16 17 56 18 29 1 58
7 64 13 14 14 29 6 22 -11z m-164 -21 c0 -7 -9 -16 -20 -19 -15 -4 -20 0 -20
14 0 12 7 19 20 19 11 0 20 -6 20 -14z m37 -165 c13 -20 8 -31 -14 -31 -7 0
-13 11 -13 25 0 30 11 32 27 6z" />
		<path d="M55 1774 c-28 -14 -73 -52 -50 -42 42 18 85 44 85 50 0 10 0 10 -35
-8z" />
		<path d="M1258 1763 c18 -2 45 -2 60 0 15 2 0 4 -33 4 -33 0 -45 -2 -27 -4z" />
		<path d="M103 1741 c-6 -10 -27 -26 -47 -35 -39 -18 -49 -38 -15 -29 12 3 25
0 29 -7 5 -9 15 3 29 35 22 49 24 68 4 36z" />
		<path d="M2880 1753 c-56 -10 -36 -19 40 -19 44 1 80 4 80 7 0 17 -59 23 -120
12z" />
		<path d="M1295 1743 c11 -3 48 -16 83 -29 34 -13 62 -21 62 -19 0 13 -73 44
-115 49 -27 3 -41 3 -30 -1z" />
		<path d="M1240 1710 c-11 -7 0 -10 39 -10 30 0 52 2 50 5 -11 10 -75 14 -89 5z" />
		<path d="M2875 1700 c-17 -7 -14 -9 15 -9 19 -1 53 -4 75 -7 27 -4 35 -2 25 4
-23 15 -93 22 -115 12z" />
		<path d="M2393 1673 c26 -7 21 -21 -6 -16 -20 4 -23 1 -21 -24 1 -15 7 -39 13
-53 10 -21 10 -18 6 23 -6 49 5 62 24 30 9 -16 10 -16 11 5 0 12 6 22 13 23
17 1 -25 18 -43 17 -10 0 -9 -2 3 -5z" />
		<path d="M1336 1642 c-13 -14 -16 -14 -16 -2 -1 11 -3 11 -11 -2 -5 -10 -20
-18 -31 -18 -12 0 -19 -3 -15 -6 3 -4 -1 -13 -9 -21 -12 -12 -17 -13 -30 -2
-13 11 -14 9 -8 -16 5 -20 4 -26 -5 -21 -6 4 -11 0 -11 -10 0 -13 -3 -14 -15
-4 -12 10 -15 10 -15 -3 0 -8 5 -17 11 -19 7 -2 7 -12 -1 -33 -15 -40 -4 -27
23 26 26 51 104 109 148 109 31 0 135 -25 153 -37 11 -7 -3 5 -42 38 -8 6 -35
17 -62 24 -42 11 -50 11 -64 -3z" />
		<path d="M2283 1648 c25 -11 28 -17 24 -43 -2 -16 -1 -41 3 -55 5 -18 8 -9 11
36 2 36 0 61 -6 62 -5 0 -21 3 -35 6 -22 5 -21 4 3 -6z" />
		<path d="M2339 1552 c-5 -51 4 -62 51 -62 25 0 39 6 49 21 7 13 9 24 4 28 -6
3 -15 15 -22 26 -11 18 -12 17 -6 -9 5 -22 3 -27 -8 -23 -8 3 -19 1 -25 -5 -8
-8 -13 -6 -18 8 -18 57 -21 59 -25 16z" />
		<path d="M2625 1580 c-18 -7 -18 -9 -3 -15 22 -9 54 -3 51 10 -3 13 -24 16
-48 5z" />
		<path d="M1337 1569 c-9 -6 -15 -15 -11 -20 3 -5 0 -8 -6 -7 -12 3 -78 -78
-79 -96 -1 -6 13 9 31 33 l31 43 22 -41 c21 -43 65 -77 105 -83 13 -1 28 -11
34 -20 17 -28 -5 -52 -59 -62 -53 -10 -88 4 -134 52 -16 16 -26 21 -29 13 -12
-36 96 -93 167 -89 50 3 66 -16 37 -45 -17 -17 -118 -33 -135 -22 -6 3 -11 2
-11 -3 0 -15 27 -22 82 -22 43 0 54 4 78 30 15 16 32 47 37 67 12 53 39 52 35
-2 -2 -27 0 -35 6 -25 15 25 22 84 12 100 -6 9 -5 19 3 29 10 12 9 12 -9 1
-25 -15 -64 -3 -150 47 -59 35 -69 70 -33 109 24 25 10 33 -24 13z" />
		<path d="M1842 1550 c-7 -12 -17 -18 -22 -15 -6 4 -10 -11 -10 -34 0 -23 5
-41 10 -41 6 0 10 5 10 11 0 5 5 7 10 4 6 -3 10 2 11 12 0 10 2 33 5 51 5 38
3 39 -14 12z" />
		<path d="M1915 1562 c-9 -6 -35 -77 -35 -96 0 -12 23 -6 41 10 13 11 16 22 10
33 -5 9 -11 19 -13 23 -1 4 6 14 17 22 15 12 16 15 5 16 -8 0 -20 -4 -25 -8z" />
		<path d="M2513 1509 c-36 -18 -33 -18 28 -4 43 10 108 -13 154 -56 51 -47 72
-87 84 -160 l9 -54 1 43 c0 24 -4 52 -9 63 -8 14 -7 19 2 19 7 0 5 5 -6 11
-15 9 -16 13 -5 20 11 7 10 9 -4 9 -14 0 -17 5 -12 21 5 15 4 19 -5 14 -7 -4
-27 9 -50 33 -21 22 -41 37 -44 35 -3 -3 -12 0 -20 6 -24 20 -82 20 -123 0z" />
		<path d="M1485 1511 c3 -6 19 -18 35 -26 16 -8 32 -24 35 -36 4 -11 9 -18 12
-16 13 14 -13 49 -49 68 -22 11 -37 16 -33 10z" />
		<path d="M1990 1510 c0 -5 5 -10 10 -10 6 0 10 -5 10 -11 0 -6 -7 -9 -15 -5
-8 3 -15 0 -15 -6 0 -7 -4 -7 -14 1 -10 9 -16 8 -26 -4 -11 -13 -4 -15 52 -15
l65 0 17 -37 c9 -21 13 -27 10 -13 -3 14 -6 33 -7 43 -1 9 -5 17 -10 17 -4 0
-5 5 -2 10 3 6 4 14 0 20 -7 11 -35 2 -35 -12 0 -5 5 -6 10 -3 6 3 10 1 10 -4
0 -21 -21 -11 -30 14 -9 24 -30 35 -30 15z" />
		<path d="M175 1419 c-38 -27 -79 -57 -89 -66 -11 -8 -34 -24 -53 -35 -18 -11
-33 -24 -33 -30 0 -10 47 16 118 66 45 33 141 116 132 115 -3 0 -36 -22 -75
-50z" />
		<path d="M2404 1458 c76 -52 102 -96 117 -192 11 -69 1 -112 -28 -123 -10 -3
-26 -13 -35 -21 -10 -8 -24 -12 -32 -9 -8 3 -24 -6 -37 -20 -22 -24 -22 -25
-4 -18 11 4 42 16 70 26 75 28 80 37 80 132 -1 70 -5 92 -28 139 -28 57 -52
80 -97 92 -23 6 -23 5 -6 -6z" />
		<path d="M522 1438 c-12 -12 -22 -17 -22 -10 0 15 -46 16 -55 2 -4 -6 -10 -8
-15 -5 -9 6 -44 -22 -148 -117 -48 -44 -70 -58 -93 -58 -30 0 -64 -22 -52 -33
3 -3 12 0 20 8 18 18 72 19 95 1 16 -11 12 -17 -34 -62 -28 -27 -48 -41 -44
-30 5 15 2 17 -14 13 -11 -3 -20 -1 -20 4 0 5 10 10 23 11 12 0 27 2 34 2 7 1
18 7 25 14 9 9 3 12 -31 12 -33 0 -51 -7 -83 -32 -56 -46 -106 -91 -90 -83 7
4 20 1 29 -7 14 -11 16 -11 11 3 -4 11 3 26 18 40 l25 23 6 -22 6 -23 22 21
c13 12 25 17 29 12 3 -6 -21 -35 -55 -65 -37 -34 -53 -53 -40 -50 12 3 21 1
21 -6 0 -6 -13 -11 -28 -11 -34 0 -62 -27 -62 -60 l0 -23 25 27 c13 14 29 26
34 26 6 0 29 26 53 57 51 70 127 147 136 139 3 -4 13 6 22 23 21 40 202 186
215 173 4 -4 5 0 3 8 -1 8 2 14 8 15 6 0 33 20 60 43 27 24 35 35 18 23 -17
-11 -37 -27 -44 -36 -7 -8 -20 -15 -30 -15 -10 0 -23 -7 -30 -14 -6 -8 -35
-30 -63 -48 -28 -18 -66 -47 -86 -64 -28 -26 -37 -30 -52 -21 -10 6 -15 15
-13 19 3 5 9 6 13 4 10 -7 32 9 35 25 3 20 120 132 124 119 2 -5 9 -7 14 -4 7
4 8 2 4 -4 -4 -6 -13 -9 -20 -6 -7 3 -19 -2 -26 -11 -10 -12 -10 -15 1 -15 11
0 11 -2 -1 -9 -8 -6 -17 -8 -20 -6 -4 2 -20 -10 -36 -27 l-29 -32 30 18 c55
34 124 89 120 96 -2 4 6 5 18 3 15 -3 30 4 46 21 30 32 24 35 -7 4z" />
		<path d="M682 1442 c-11 -11 -35 -22 -56 -25 -28 -4 -49 -19 -88 -62 -28 -31
-71 -70 -95 -87 -25 -16 -42 -32 -39 -35 3 -3 -9 -26 -26 -50 -27 -40 -29 -47
-15 -60 13 -14 16 -12 21 15 5 19 36 57 89 108 44 44 78 73 73 67 -13 -22 4
-14 31 15 15 15 23 21 18 14 -6 -11 -3 -12 14 -2 12 6 25 18 28 26 3 7 10 11
16 7 5 -3 7 -2 4 4 -3 5 8 26 24 46 32 39 32 50 1 19z" />
		<path d="M951 1423 c-17 -20 -28 -39 -26 -41 5 -5 39 32 56 61 16 29 2 19 -30
-20z" />
		<path d="M964 1383 c-27 -37 -76 -109 -109 -159 -85 -130 -313 -466 -466 -689
-72 -104 -134 -199 -140 -210 -8 -19 -80 -129 -157 -241 -32 -47 -39 -64 -24
-64 7 1 50 63 82 120 8 15 35 56 60 91 25 35 51 76 59 90 7 14 24 39 37 54 13
15 24 32 24 37 0 4 19 36 43 71 24 34 55 83 70 109 15 26 33 53 40 60 11 11
136 193 162 236 23 39 138 209 154 227 9 11 25 36 35 55 10 19 25 42 31 50 11
12 132 190 151 221 3 5 4 9 2 9 -2 0 -26 -30 -54 -67z" />
		<path d="M1167 1438 c-3 -9 -1 -19 6 -21 9 -3 8 -10 -2 -28 -13 -22 -13 -23 2
-11 13 11 16 10 22 -7 3 -12 11 -21 16 -21 13 0 11 11 -5 29 -7 9 -18 29 -23
45 -7 23 -11 26 -16 14z" />
		<path d="M2034 1423 c7 -44 -16 -42 -43 2 -10 17 -12 17 -7 2 3 -10 6 -26 6
-36 0 -14 7 -16 35 -13 31 4 35 7 29 26 -12 41 -26 53 -20 19z" />
		<path d="M2096 1425 c3 -16 7 -31 8 -32 1 -1 25 5 54 15 48 16 71 42 37 42 -8
0 -15 -4 -15 -8 0 -11 -56 -31 -67 -23 -6 3 -13 13 -17 21 -3 8 -3 2 0 -15z" />
		<path d="M254 1418 c-16 -19 -16 -20 -1 -9 9 8 20 11 23 9 5 -6 -49 -48 -61
-48 -4 0 -1 8 6 18 12 15 12 16 -1 6 -8 -6 -50 -37 -92 -68 -43 -31 -78 -59
-78 -62 0 -7 18 4 63 39 21 16 40 27 43 24 3 -2 -7 -14 -22 -26 -15 -11 -24
-21 -20 -21 4 0 46 30 94 67 90 69 117 92 93 78 -7 -4 -16 -3 -20 4 -5 8 -14
4 -27 -11z" />
		<path d="M330 1419 c-14 -12 -34 -27 -44 -35 -11 -7 -18 -15 -15 -17 2 -3 26
13 52 34 27 22 45 39 40 39 -4 -1 -19 -10 -33 -21z" />
		<path d="M871 1392 c-24 -24 -149 -136 -279 -250 -129 -114 -267 -235 -306
-269 -39 -35 -74 -63 -77 -63 -3 0 -12 19 -19 43 -8 23 -15 35 -17 26 -2 -8 2
-29 8 -45 7 -16 12 -32 11 -36 -1 -5 3 -8 9 -8 13 0 51 33 303 255 87 77 162
140 167 140 5 0 8 3 7 7 -3 7 39 41 52 44 12 2 191 185 188 192 -2 4 -23 -12
-47 -36z" />
		<path d="M1880 1420 c0 -5 5 -10 10 -10 6 0 10 -10 10 -22 -1 -22 -1 -23 -15
-4 -14 18 -15 14 -15 -45 0 -35 -3 -74 -6 -86 -5 -19 -2 -23 18 -23 23 0 24 2
25 100 2 82 0 100 -12 100 -8 0 -15 -4 -15 -10z" />
		<path d="M1629 1396 c-9 -12 -13 -30 -10 -43 5 -20 8 -18 23 17 18 44 11 59
-13 26z" />
		<path d="M902 1358 c-5 -7 -57 -84 -115 -170 -58 -86 -129 -187 -159 -225 -71
-89 -77 -99 -49 -81 12 7 21 16 21 20 0 4 11 19 25 34 14 15 25 33 25 40 0 8
4 14 9 14 5 0 41 46 79 103 38 56 95 140 126 186 32 46 55 85 53 87 -2 3 -9
-1 -15 -8z" />
		<path d="M215 1329 c-50 -37 -68 -56 -40 -40 23 12 93 70 85 70 -3 0 -23 -13
-45 -30z" />
		<path d="M986 1338 c-9 -12 -16 -31 -16 -42 0 -14 6 -8 20 19 22 44 20 58 -4
23z" />
		<path d="M2021 1333 c0 -6 -4 -18 -7 -27 -4 -11 -1 -16 11 -16 10 0 13 -5 9
-12 -10 -16 166 -3 233 17 56 17 96 49 52 43 -13 -2 -34 -10 -47 -16 -12 -7
-61 -18 -107 -24 -90 -12 -129 -4 -138 31 -3 9 -5 11 -6 4z" />
		<path d="M1673 1270 c0 -30 1 -47 4 -37 2 9 9 15 14 12 5 -4 9 -1 9 4 0 6 -4
11 -9 11 -6 0 -12 15 -14 33 -2 18 -4 8 -4 -23z" />
		<path d="M943 1273 c-3 -10 -15 -31 -26 -46 -10 -15 -20 -35 -21 -43 -1 -9 -7
-19 -12 -22 -20 -14 -54 -71 -53 -89 0 -14 2 -14 6 -3 4 8 26 43 50 77 39 57
80 143 67 143 -2 0 -7 -8 -11 -17z" />
		<path d="M962 1200 c-24 -33 -39 -60 -34 -60 7 0 46 56 76 108 18 31 -4 6 -42
-48z" />
		<path d="M1210 1245 c-7 -9 -10 -18 -6 -22 3 -3 6 0 6 8 1 11 3 11 10 -2 6
-10 4 -28 -8 -52 -15 -35 -28 -42 -72 -39 -84 6 -168 4 -181 -4 -17 -10 -39
-46 -39 -63 0 -6 7 -11 15 -11 8 0 15 -5 15 -10 0 -7 -6 -8 -17 -1 -18 10 -18
10 -61 -68 -12 -22 -18 -41 -12 -41 5 0 10 6 10 13 0 7 11 28 24 46 24 32 25
32 36 12 6 -12 17 -21 25 -21 8 0 15 -4 15 -10 0 -5 -10 -10 -21 -10 -21 0
-21 -3 -14 -92 4 -51 8 -94 9 -95 1 -1 11 0 23 3 20 5 20 11 15 113 l-5 108
64 3 c35 1 73 2 84 2 72 -2 111 -7 117 -16 5 -7 8 -7 8 2 0 6 5 12 10 12 6 0
10 -7 10 -16 0 -13 3 -14 14 -5 8 7 17 8 19 4 9 -14 -8 -34 -24 -31 -11 2 -15
-16 -17 -88 -3 -92 -3 -92 21 -90 24 1 25 3 30 111 3 73 10 120 21 140 9 17
16 36 16 43 0 6 5 12 11 12 5 0 8 -4 5 -8 -11 -19 -23 -92 -15 -92 5 0 9 8 9
18 0 35 31 111 43 106 7 -2 30 5 52 16 30 15 40 27 40 45 1 33 -14 32 -41 -2
-19 -24 -29 -28 -69 -26 -55 2 -106 33 -132 81 -20 36 -25 38 -43 17z m45 -55
c-2 -11 -7 -26 -11 -33 -6 -9 -5 -9 8 0 8 7 18 10 21 6 4 -3 7 0 7 7 0 7 2 11
5 8 10 -9 -7 -38 -19 -32 -6 3 -2 -2 8 -10 13 -11 23 -13 31 -6 7 6 20 7 29 4
23 -9 13 -52 -16 -76 -23 -21 -101 -24 -160 -8 -25 7 -44 7 -56 1 -10 -5 -47
-7 -82 -3 l-65 6 50 9 c28 5 59 9 71 9 11 0 21 6 21 14 0 7 -5 10 -10 7 -5 -3
-8 0 -5 8 2 8 17 15 31 17 21 3 27 -1 27 -17 0 -10 -6 -22 -12 -25 -7 -3 1 -4
17 -1 17 3 42 15 57 25 15 11 32 20 38 20 5 0 10 5 10 10 0 6 -7 10 -15 10
-18 0 -18 7 -4 48 12 34 30 35 24 2z m-235 -69 c0 -4 12 -6 28 -4 l27 5 -25
-21 c-14 -11 -34 -20 -45 -19 -11 0 -27 -2 -36 -6 -13 -6 -16 -1 -16 18 0 19
5 26 26 29 14 2 29 5 34 6 4 0 7 -3 7 -8z" />
		<path d="M1312 1103 c-6 -2 -9 -10 -5 -15 4 -7 -1 -9 -15 -6 -13 4 -23 0 -26
-8 -7 -19 28 -18 48 2 13 13 22 36 14 33 -2 0 -9 -3 -16 -6z" />
		<path d="M1490 1249 c0 -6 11 -22 25 -35 14 -13 25 -19 25 -14 0 5 -5 12 -10
15 -6 4 -9 14 -8 23 2 9 -5 18 -14 20 -10 2 -18 -2 -18 -9z" />
		<path d="M1995 1240 c4 -14 7 -33 6 -43 0 -9 4 -15 10 -12 14 9 10 38 -8 60
-15 19 -15 19 -8 -5z" />
		<path d="M353 1197 c-21 -19 -49 -41 -63 -50 -13 -9 -20 -17 -14 -17 6 0 23 9
36 20 14 10 28 17 32 15 3 -3 4 -2 2 1 -3 3 10 19 27 35 18 15 29 29 25 29 -5
0 -25 -15 -45 -33z" />
		<path d="M1858 1157 c-2 -34 0 -65 5 -68 5 -3 2 -13 -7 -22 -13 -13 -14 -16
-1 -21 21 -8 34 23 41 101 6 64 5 69 -14 70 -18 1 -21 -5 -24 -60z" />
		<path d="M2745 1213 c-29 -7 -225 -101 -225 -107 0 -5 33 7 125 44 86 36 138
50 160 46 11 -2 52 -6 90 -10 l70 -5 -90 19 c-96 20 -99 20 -130 13z" />
		<path d="M2270 1189 c-56 -21 -163 -23 -201 -3 -24 12 -28 12 -23 0 16 -43
202 -44 260 -1 30 21 13 23 -36 4z" />
		<path d="M1557 1173 c-3 -5 -8 -23 -12 -41 -3 -18 -11 -30 -16 -26 -17 10 -9
-13 10 -30 15 -14 20 -14 24 -3 3 8 2 20 -3 27 -9 14 -1 50 11 50 5 0 15 -12
23 -27 8 -16 15 -23 16 -18 0 11 -37 75 -44 75 -3 0 -7 -3 -9 -7z" />
		<path d="M652 1145 c-6 -14 -16 -25 -22 -25 -5 0 -10 -4 -10 -9 0 -20 32 -3
45 23 17 33 18 36 7 36 -5 0 -14 -11 -20 -25z" />
		<path d="M1920 1128 c0 -10 5 -18 10 -18 7 0 7 -6 0 -20 -9 -16 -8 -18 5 -14
19 8 19 25 0 50 -13 17 -14 17 -15 2z" />
		<path d="M1674 1122 c-6 -4 -14 -26 -17 -50 -5 -39 -4 -42 9 -25 13 16 14 15
8 -12 -4 -16 -4 -27 0 -24 4 3 9 24 11 45 4 28 2 35 -5 24 -14 -21 -13 5 0 31
12 21 11 22 -6 11z" />
		<path d="M866 1048 c-22 -40 -55 -98 -75 -128 -34 -50 -72 -113 -111 -182 -8
-15 -37 -62 -64 -105 -27 -43 -74 -121 -104 -173 -67 -116 -128 -219 -209
-356 -34 -57 -59 -104 -55 -104 4 0 25 30 47 68 21 37 62 103 91 147 29 44 70
114 91 155 43 82 70 128 120 205 18 27 33 53 33 57 0 4 15 27 33 51 18 24 39
59 47 78 8 19 18 39 22 44 18 22 90 139 123 201 20 36 43 77 51 90 9 13 12 24
7 24 -5 0 -26 -33 -47 -72z" />
		<path d="M2643 1090 c-35 -16 -63 -31 -63 -34 0 -3 8 -2 18 2 74 33 112 52
112 57 0 7 4 8 -67 -25z" />
		<path d="M2064 1098 c-3 -5 -15 -8 -25 -5 -11 3 -19 2 -19 -3 0 -4 -10 -10
-22 -13 -18 -5 -19 -8 -8 -21 14 -18 65 -22 54 -5 -3 6 0 15 7 20 16 9 29 -7
29 -37 0 -15 -6 -21 -17 -20 -14 1 -18 -6 -16 -29 5 -67 14 -95 31 -95 12 0
13 3 5 8 -7 4 -13 24 -15 45 -1 20 -7 37 -13 37 -5 0 -1 7 9 15 23 17 37 11
30 -13 -5 -13 -4 -14 4 -3 15 21 58 6 70 -26 17 -43 19 -68 5 -66 -7 2 -13 -2
-13 -8 0 -6 7 -9 15 -5 8 3 19 -2 24 -12 20 -33 12 20 -9 67 -11 24 -20 45
-20 47 0 12 82 -2 90 -15 5 -9 10 -11 10 -4 0 6 3 18 6 27 5 13 -2 16 -36 16
-26 0 -56 8 -77 21 -37 23 -59 18 -27 -6 18 -14 18 -14 -4 -15 -15 0 -26 8
-32 26 -13 33 -13 57 0 49 6 -3 10 0 10 8 0 17 -37 29 -46 15z" />
		<path d="M2270 1093 c-16 -9 -47 -12 -84 -10 -50 3 -56 2 -40 -10 10 -7 24
-13 32 -13 28 0 147 23 155 30 16 14 -38 16 -63 3z" />
		<path d="M370 1068 c-13 -27 -20 -32 -55 -33 -22 0 -45 -4 -51 -8 -7 -4 -17 0
-24 8 -11 13 -8 15 16 16 16 1 33 1 37 0 5 -1 6 2 4 6 -3 5 -27 7 -53 4 l-48
-3 22 -19 c13 -10 23 -22 23 -26 0 -4 14 -7 32 -5 l32 3 -25 -14 c-18 -10 -31
-11 -48 -3 -17 7 -29 6 -43 -2 -22 -14 -32 -15 -25 -3 3 4 -6 6 -19 3 -14 -2
-28 -9 -32 -15 -3 -6 -1 -7 5 -3 7 4 12 2 12 -5 0 -8 5 -7 17 2 15 13 15 12 3
-11 -7 -14 -22 -36 -34 -49 l-21 -24 25 13 c14 7 -8 -20 -47 -60 -40 -40 -73
-77 -73 -83 0 -7 35 24 79 67 52 52 77 84 74 95 -2 10 7 29 23 44 31 31 56 37
29 7 -10 -11 -14 -20 -10 -20 5 0 1 -6 -9 -13 -11 -8 -16 -20 -13 -28 4 -11 6
-11 6 2 1 9 31 30 74 52 81 39 137 88 137 118 0 26 -2 24 -20 -13z" />
		<path d="M581 1074 c-11 -15 -18 -30 -15 -35 3 -5 1 -9 -5 -9 -5 0 -20 -17
-32 -37 -13 -21 -26 -40 -29 -43 -18 -15 -54 -77 -52 -88 2 -9 -1 -11 -9 -6
-7 4 -10 3 -5 -4 3 -6 -8 -26 -26 -44 -49 -49 -88 -97 -62 -75 11 9 26 17 32
17 6 0 17 10 23 23 7 12 19 27 28 34 9 6 16 15 16 20 1 4 6 18 13 31 7 12 10
22 8 22 -3 0 15 19 39 41 25 23 45 47 45 54 0 7 7 18 15 25 8 7 12 16 9 21 -3
5 1 9 8 9 10 0 10 2 -1 9 -11 7 -10 11 6 20 11 5 24 7 29 3 5 -4 3 0 -4 9 -6
9 -9 19 -5 22 3 4 4 7 0 7 -3 0 -15 -12 -26 -26z" />
		<path d="M1429 1098 c-1 -2 -3 -16 -5 -33 -2 -16 -11 -35 -20 -42 -17 -12 -17
-13 2 -13 10 1 30 7 44 16 20 12 21 14 5 9 -19 -4 -21 -1 -17 30 2 19 1 35 -2
35 -3 0 -7 -1 -7 -2z" />
		<path d="M1480 1074 c5 -12 6 -25 2 -29 -4 -4 0 -6 8 -3 8 2 16 16 18 29 2 19
-2 25 -16 25 -16 0 -18 -4 -12 -22z" />
		<path d="M2371 1044 c-30 -13 -57 -27 -60 -30 -6 -6 29 -74 39 -74 3 0 15 7
26 15 11 9 13 13 4 10 -9 -3 -24 1 -35 9 -20 14 -20 15 2 35 12 12 26 21 30
21 4 0 22 9 38 20 40 27 22 24 -44 -6z" />
		<path d="M795 1041 c-3 -11 -16 -35 -29 -54 -13 -19 -27 -46 -31 -58 -3 -13
12 3 33 36 22 33 38 63 35 68 -2 4 1 7 6 7 6 0 11 5 11 10 0 18 -18 11 -25 -9z" />
		<path d="M1920 1054 c0 -6 3 -14 6 -17 4 -4 7 -34 8 -68 1 -40 5 -64 14 -66 6
-3 12 3 12 12 0 9 -4 13 -10 10 -5 -3 -10 3 -10 15 0 20 1 20 29 5 17 -8 33
-19 36 -25 8 -13 25 -13 25 1 0 5 -4 8 -9 4 -12 -7 -33 29 -24 39 3 3 -8 6
-25 6 -18 0 -32 5 -32 11 0 5 4 8 9 4 12 -7 -5 55 -19 69 -7 7 -10 7 -10 0z" />
		<path d="M1530 1029 c0 -12 -4 -18 -11 -13 -7 4 -10 1 -7 -7 8 -24 31 -15 39
14 5 20 4 27 -7 27 -8 0 -14 -9 -14 -21z" />
		<path d="M163 1025 c-17 -13 -16 -14 9 -15 30 0 46 15 24 23 -8 3 -22 -1 -33
-8z" />
		<path d="M1475 988 c-2 -7 -11 -59 -19 -116 -8 -57 -21 -111 -28 -120 -9 -11
-10 -14 0 -8 7 4 12 2 12 -5 0 -30 10 3 20 66 6 39 13 81 16 95 12 59 16 100
10 100 -4 0 -9 -6 -11 -12z" />
		<path d="M1163 913 c-12 -37 -24 -77 -28 -88 -6 -16 -5 -17 4 -5 15 21 53 138
49 151 -2 6 -13 -20 -25 -58z" />
		<path d="M1225 953 c-14 -35 -54 -187 -50 -191 2 -2 13 29 25 70 11 40 26 86
32 101 6 15 8 30 6 33 -3 3 -9 -3 -13 -13z" />
		<path d="M1650 956 c0 -9 -4 -15 -9 -12 -11 7 -8 -50 3 -61 4 -4 7 1 5 12 -2
11 1 30 5 43 4 13 5 26 2 29 -3 4 -6 -1 -6 -11z" />
		<path d="M2297 950 c6 -22 192 -291 263 -379 8 -11 22 -29 30 -42 15 -22 63
-82 87 -106 6 -7 18 -13 25 -13 8 0 18 -4 24 -9 5 -5 32 -12 59 -15 28 -3 84
-15 125 -26 91 -24 90 -24 90 -5 0 8 -7 15 -15 15 -9 0 -60 11 -113 24 -53 13
-114 26 -134 30 -33 6 -48 21 -136 134 -54 70 -118 154 -142 187 -69 95 -153
209 -161 219 -4 5 -5 -2 -2 -14z" />
		<path d="M2100 945 c0 -10 5 -36 12 -58 9 -30 13 -35 18 -21 6 17 -9 76 -23
90 -4 4 -7 -1 -7 -11z" />
		<path d="M2226 935 c8 -37 13 -45 24 -45 5 0 4 12 -2 28 -18 41 -30 51 -22 17z" />
		<path d="M47 921 c-12 -13 -16 -21 -9 -17 6 4 12 2 12 -4 0 -12 58 30 59 42 2
16 -41 2 -62 -21z" />
		<path d="M1000 901 c0 -28 3 -52 8 -54 4 -3 7 19 7 49 0 30 -3 54 -7 54 -5 0
-8 -22 -8 -49z" />
		<path d="M889 908 c-7 -12 -33 -61 -59 -108 -73 -136 -120 -223 -193 -353 -38
-67 -80 -144 -94 -172 -24 -46 -24 -48 -5 -31 12 10 26 35 33 55 6 20 17 43
24 51 14 17 39 61 130 230 34 63 90 166 124 229 34 62 60 116 57 118 -2 3 -10
-6 -17 -19z" />
		<path d="M1119 928 c-6 -16 -6 -79 0 -72 15 15 24 74 12 74 -6 0 -11 -1 -12
-2z" />
		<path d="M1383 885 c-6 -20 -7 -37 -2 -40 4 -3 11 7 15 22 3 15 7 34 10 41 2
6 0 12 -5 12 -4 0 -12 -16 -18 -35z" />
		<path d="M694 879 c-9 -18 -42 -72 -72 -119 -81 -125 -133 -206 -187 -290 -26
-41 -58 -91 -70 -110 -33 -51 -105 -171 -105 -176 0 -2 -25 -42 -56 -89 -31
-48 -54 -89 -51 -91 3 -3 13 7 23 23 22 35 55 86 91 138 33 48 68 108 66 115
-1 3 3 4 7 3 4 -1 10 11 13 27 4 15 20 44 36 63 17 19 28 37 24 41 -3 3 -1 6
6 6 7 0 10 4 6 9 -3 6 3 14 13 20 10 5 33 38 51 73 18 35 36 65 40 68 11 9 61
86 61 96 1 5 14 24 30 43 16 19 27 38 25 41 -3 4 2 14 11 21 19 15 67 109 60
116 -2 3 -12 -10 -22 -28z" />
		<path d="M1517 893 c-11 -19 -18 -93 -8 -93 5 0 13 20 17 45 6 43 2 66 -9 48z" />
		<path d="M798 854 c-20 -45 -6 -54 15 -9 9 19 13 36 8 39 -4 3 -14 -11 -23
-30z" />
		<path d="M522 815 c-18 -25 -32 -49 -32 -54 0 -4 -11 -18 -25 -31 -13 -12 -22
-27 -19 -31 3 -5 1 -9 -5 -9 -6 0 -36 -39 -67 -87 -31 -49 -96 -144 -144 -213
-103 -147 -124 -180 -117 -180 13 0 235 304 234 320 -1 8 36 62 61 89 12 13
20 26 17 29 -2 3 2 10 10 16 19 15 137 196 127 196 -5 0 -23 -20 -40 -45z" />
		<path d="M1637 853 c-11 -10 -8 -43 3 -43 6 0 10 4 10 9 0 5 3 16 6 25 6 16
-7 22 -19 9z" />
		<path d="M2075 850 c3 -5 8 -33 11 -61 5 -57 10 -69 25 -69 6 0 7 4 4 10 -3 5
-8 23 -10 40 -7 58 -17 90 -26 90 -6 0 -8 -4 -4 -10z" />
		<path d="M1974 835 c-7 -16 3 -35 17 -35 6 0 8 4 4 9 -3 5 2 17 11 25 14 15
14 16 -6 16 -11 0 -23 -7 -26 -15z" />
		<path d="M2135 820 c3 -14 9 -43 12 -65 3 -22 10 -45 14 -51 5 -6 12 -31 15
-55 3 -24 13 -68 21 -98 15 -52 21 -77 22 -94 1 -5 5 -6 10 -3 5 4 6 18 1 34
-21 68 -39 142 -50 195 -7 33 -21 82 -31 110 -11 29 -17 41 -14 27z" />
		<path d="M2200 835 c0 -21 24 -85 32 -85 5 0 7 -15 4 -32 -5 -29 -5 -30 4 -9
13 31 3 84 -21 112 -10 12 -19 19 -19 14z" />
		<path d="M1362 788 c-15 -57 -15 -58 -1 -58 5 0 7 5 4 10 -4 6 -2 17 5 25 6 8
10 26 8 42 -3 25 -5 22 -16 -19z" />
		<path d="M860 760 c-17 -33 -27 -60 -23 -60 7 0 16 18 54 103 5 9 6 17 4 17
-3 0 -18 -27 -35 -60z" />
		<path d="M760 790 c-6 -11 -8 -20 -5 -20 3 0 1 -10 -5 -22 -11 -22 -10 -22 4
-4 9 11 16 25 16 32 0 7 5 14 12 16 9 3 9 6 1 11 -7 5 -17 -1 -23 -13z" />
		<path d="M1124 788 c-4 -7 -9 -19 -9 -28 -1 -8 -5 -25 -9 -37 -4 -13 -5 -23
-3 -23 7 0 38 92 33 97 -2 3 -8 -2 -12 -9z" />
		<path d="M1640 795 c-1 -5 -2 -13 -1 -17 0 -4 -6 -5 -15 -1 -13 5 -15 2 -9
-17 5 -15 2 -25 -6 -31 -11 -7 -11 -9 -1 -9 7 0 17 10 22 23 5 12 9 15 9 7 1
-26 -11 -60 -19 -55 -5 3 -11 1 -15 -5 -3 -5 1 -10 9 -10 12 0 16 -10 16 -40
0 -22 -4 -40 -10 -40 -12 0 -12 -57 0 -85 7 -16 9 -12 9 20 0 22 5 87 11 143
6 57 9 109 6 115 -2 7 -5 8 -6 2z" />
		<path d="M2635 768 c-27 -17 -66 -40 -85 -49 -19 -10 -29 -18 -22 -19 15 0
149 77 158 91 8 13 3 11 -51 -23z" />
		<path d="M2030 777 c0 -14 19 -37 32 -37 16 0 7 30 -12 40 -15 8 -20 8 -20 -3z" />
		<path d="M2269 733 c0 -32 -3 -88 -8 -125 -5 -52 -2 -97 16 -195 27 -153 26
-150 41 -165 17 -17 16 16 -2 73 -15 47 -28 119 -21 119 12 0 44 -81 38 -96
-5 -13 -3 -16 10 -11 10 4 17 2 17 -5 0 -6 6 -19 14 -27 24 -27 126 -233 120
-242 -2 -5 2 -21 11 -36 l15 -28 -6 28 c-8 35 1 35 21 0 15 -27 16 -27 9 -3
-3 14 -12 32 -19 40 -6 8 -31 51 -55 95 -24 44 -76 140 -117 213 l-75 133 1
144 c1 80 -1 145 -4 145 -3 0 -5 -26 -6 -57z" />
		<path d="M950 706 c0 -45 -4 -65 -14 -69 -8 -3 -29 -38 -48 -77 -30 -61 -32
-71 -16 -67 22 6 22 8 3 -37 -8 -20 -13 -36 -10 -36 11 0 35 74 26 83 -5 5 -1
29 12 59 17 42 22 48 29 32 6 -14 7 -11 3 9 -7 34 9 35 39 2 31 -34 37 -18 26
71 -5 38 -9 75 -10 82 0 6 -9 12 -20 12 -18 0 -20 -7 -20 -64z" />
		<path d="M1256 700 c-9 -98 -10 -99 -19 -93 -5 3 -8 0 -5 -8 2 -7 -2 -21 -11
-31 -13 -15 -18 -61 -22 -181 0 -9 -4 -15 -9 -12 -4 3 -10 -2 -13 -9 -3 -8 -1
-17 6 -20 9 -3 9 -5 0 -5 -7 -1 -10 -8 -7 -16 4 -8 2 -15 -3 -15 -5 0 -9 -8
-10 -17 0 -10 -11 -56 -23 -103 -12 -47 -24 -97 -26 -111 -2 -14 -8 -38 -13
-52 -6 -15 -7 -27 -2 -27 9 0 33 81 51 175 7 33 18 74 26 90 7 17 22 71 34
120 12 50 25 104 30 120 5 17 12 42 15 58 3 15 10 27 16 27 6 0 8 -9 4 -22 -6
-19 -5 -21 6 -11 13 13 27 93 28 168 1 36 -2 40 -23 40 -22 0 -24 -5 -30 -65z" />
		<path d="M1491 703 c-19 -112 -22 -136 -26 -176 -1 -21 -5 -41 -9 -44 -3 -4
-6 -23 -6 -43 0 -20 -3 -40 -7 -43 -11 -12 -12 -77 0 -77 6 0 8 3 5 6 -3 3 1
33 8 67 8 33 12 67 10 74 -3 7 -1 15 4 18 4 3 7 17 5 33 -2 15 1 34 5 42 4 8
11 38 14 65 3 28 8 71 12 98 10 73 -3 56 -15 -20z" />
		<path d="M2756 743 c-10 -3 -39 -18 -65 -33 -25 -16 -61 -37 -78 -46 -18 -9
-33 -20 -33 -25 0 -14 4 -12 87 41 43 27 83 50 90 50 6 0 15 5 18 10 3 6 5 9
3 9 -2 -1 -11 -3 -22 -6z" />
		<path d="M2790 741 c0 -6 6 -11 13 -11 6 -1 48 -7 92 -15 44 -8 87 -14 95 -14
24 1 -81 26 -133 32 -26 3 -52 9 -57 12 -6 3 -10 1 -10 -4z" />
		<path d="M682 658 c-37 -60 -48 -87 -51 -121 -1 -5 -6 -5 -13 -1 -6 4 -8 3 -4
-4 3 -5 2 -12 -3 -14 -14 -5 -141 -229 -136 -238 3 -5 -13 -29 -35 -55 -39
-45 -44 -56 -41 -84 2 -7 -2 -10 -8 -6 -12 7 -15 -7 -4 -18 3 -4 12 1 19 11 7
9 8 19 3 23 -5 3 -1 14 9 25 27 29 60 79 64 95 2 7 24 49 51 91 26 43 44 78
40 78 -5 0 -3 4 4 8 16 10 93 143 93 161 0 7 16 35 35 61 20 27 32 51 28 53
-4 3 -27 -26 -51 -65z" />
		<path d="M341 703 c-7 -12 -10 -13 -11 -4 0 11 -3 11 -15 1 -21 -18 -19 -35 3
-19 15 11 15 11 4 -1 -7 -8 -16 -15 -21 -15 -10 0 -71 -70 -71 -82 0 -5 -11
-20 -25 -33 -13 -12 -22 -27 -19 -32 3 -4 -2 -11 -10 -14 -9 -3 -16 -12 -16
-20 0 -8 -4 -14 -9 -14 -5 0 -39 -41 -76 -91 -47 -62 -69 -101 -72 -125 -2
-23 0 -33 7 -29 5 3 9 16 8 28 -2 22 77 138 91 134 9 -3 71 67 71 80 0 5 13
22 29 37 16 15 43 49 61 74 l32 47 -36 -40 c-23 -25 -33 -32 -29 -19 10 26 59
84 70 84 12 0 56 60 50 67 -3 2 -10 -4 -16 -14z" />
		<path d="M1433 705 c4 -8 2 -17 -4 -20 -5 -4 -7 -10 -4 -15 3 -5 1 -11 -5 -15
-5 -3 -10 -12 -10 -18 0 -7 4 -6 10 3 9 13 10 13 11 0 1 -8 5 -1 9 15 12 45
11 65 -1 65 -6 0 -9 -7 -6 -15z" />
		<path d="M1336 669 c-8 -42 -7 -57 3 -39 14 25 22 70 12 70 -4 0 -11 -14 -15
-31z" />
		<path d="M2114 670 c4 -19 10 -53 16 -75 8 -35 8 -33 4 20 -3 33 -10 67 -16
75 -6 11 -8 5 -4 -20z" />
		<path d="M1073 658 c3 -9 -10 -61 -29 -115 -19 -54 -38 -114 -43 -133 -5 -19
-12 -44 -16 -55 -6 -19 -6 -19 5 -2 7 10 20 46 30 80 10 34 31 97 46 140 22
64 25 80 14 90 -10 10 -12 9 -7 -5z" />
		<path d="M1131 644 c-14 -31 -42 -157 -36 -163 2 -2 7 10 11 25 3 16 15 58 25
93 20 68 20 89 0 45z" />
		<path d="M1414 605 c3 -8 2 -15 -3 -15 -4 0 -9 -20 -9 -44 -1 -24 -9 -81 -17
-127 -10 -61 -11 -87 -3 -94 7 -7 9 -7 5 1 -4 6 -2 26 3 45 5 19 14 72 19 119
6 47 13 95 17 108 4 14 2 22 -6 22 -7 0 -10 -7 -6 -15z" />
		<path d="M752 547 c-12 -27 -20 -52 -18 -54 6 -6 47 88 44 98 -2 4 -13 -16
-26 -44z" />
		<path d="M1990 556 c0 -22 26 -43 38 -31 3 2 -2 7 -10 10 -10 4 -14 14 -11 26
3 10 0 19 -6 19 -6 0 -11 -11 -11 -24z" />
		<path d="M842 529 c-13 -22 -21 -43 -18 -46 3 -3 9 3 12 13 4 10 14 27 22 36
8 9 12 21 11 27 -2 6 -14 -8 -27 -30z" />
		<path d="M930 514 c-11 -25 -20 -49 -20 -52 0 -12 36 53 42 76 10 37 -1 25
-22 -24z" />
		<path d="M1302 489 c-12 -34 -19 -66 -17 -70 3 -4 1 -19 -5 -34 -8 -20 -7 -26
2 -23 7 3 14 15 16 29 2 13 10 53 18 87 9 35 14 66 11 68 -2 2 -14 -23 -25
-57z" />
		<path d="M2145 505 c4 -22 8 -46 8 -52 0 -7 4 -13 9 -13 11 0 -2 82 -14 95 -7
7 -8 -3 -3 -30z" />
		<path d="M1582 485 c0 -27 3 -41 5 -30 3 11 10 26 16 33 5 7 7 15 3 19 -3 3
-6 0 -7 -8 -1 -8 -5 -3 -9 11 -6 20 -8 14 -8 -25z" />
		<path d="M1617 470 c-4 -14 -6 -32 -5 -40 0 -8 0 -35 -1 -60 -3 -38 -4 -41
-11 -20 -5 19 -8 12 -8 -30 -1 -55 -5 -82 -18 -123 -5 -17 -4 -19 6 -10 21 20
54 215 47 278 -3 30 -3 30 -10 5z" />
		<path d="M682 413 c-32 -64 -37 -89 -13 -59 7 8 14 21 15 28 2 7 11 30 20 52
28 63 13 49 -22 -21z" />
		<path d="M828 415 c-15 -36 -22 -63 -18 -60 10 6 52 116 47 121 -2 2 -15 -25
-29 -61z" />
		<path d="M1068 434 c-20 -40 -22 -54 -8 -54 6 0 9 3 8 8 -1 4 4 20 11 36 17
43 9 50 -11 10z" />
		<path d="M791 414 c-12 -26 -20 -48 -18 -51 3 -2 15 17 27 42 12 25 20 48 18
50 -2 3 -14 -16 -27 -41z" />
		<path d="M1132 393 c-7 -27 -14 -59 -17 -73 -2 -14 -9 -40 -14 -57 -6 -20 -6
-33 0 -33 5 0 9 3 10 8 2 24 12 65 29 123 23 75 23 79 12 79 -5 0 -14 -21 -20
-47z" />
		<path d="M2230 400 c4 -23 11 -44 15 -48 4 -4 5 4 2 18 -4 14 -7 35 -7 48 0
12 -4 22 -9 22 -4 0 -5 -18 -1 -40z" />
		<path d="M748 398 c-17 -27 -32 -68 -24 -68 8 0 48 81 43 86 -2 3 -11 -6 -19
-18z" />
		<path d="M1045 341 c3 -10 0 -25 -7 -32 -12 -12 -44 -104 -63 -179 -6 -24 -5
-24 9 -6 9 11 16 30 16 42 0 13 5 26 10 29 6 4 10 12 9 18 -2 13 4 31 27 84
17 37 18 63 3 63 -6 0 -8 -8 -4 -19z" />
		<path d="M2186 295 c7 -78 14 -105 26 -105 5 0 7 8 4 18 -3 9 -8 33 -11 52 -3
20 -10 49 -15 65 -8 23 -9 17 -4 -30z" />
		<path d="M910 335 c-1 -5 -2 -14 -1 -19 3 -17 -11 -46 -19 -41 -5 3 -14 -3
-19 -14 -14 -25 -14 -34 -1 -26 6 3 10 -2 11 -12 0 -10 9 4 20 31 11 27 18 59
16 70 -2 12 -5 17 -7 11z" />
		<path d="M1257 326 c-4 -10 -7 -25 -6 -34 1 -10 4 -7 9 8 7 23 8 23 9 -9 1
-41 6 -38 14 7 4 19 3 31 -2 27 -5 -3 -11 0 -13 7 -3 7 -7 5 -11 -6z" />
		<path d="M665 277 c-14 -30 -25 -58 -25 -63 0 -10 38 58 51 92 16 44 0 25 -26
-29z" />
		<path d="M671 238 c-22 -46 -38 -72 -35 -58 5 22 3 21 -15 -8 -24 -37 -28 -55
-6 -26 20 27 18 5 -4 -38 -10 -21 -22 -34 -26 -30 -3 4 -13 -2 -21 -12 -22
-30 -16 -44 6 -16 l20 25 -15 -38 c-8 -20 -12 -37 -8 -37 10 1 156 310 150
316 -2 3 -23 -33 -46 -78z" />
		<path d="M705 223 c-29 -62 -47 -113 -39 -113 3 0 51 96 59 120 1 3 5 13 10
23 4 10 5 20 2 23 -3 3 -17 -21 -32 -53z" />
		<path d="M834 268 c-16 -25 -32 -78 -23 -78 5 0 9 6 9 13 0 6 7 25 15 41 16
29 14 49 -1 24z" />
		<path d="M1245 261 c-10 -17 -23 -101 -15 -101 4 0 5 -12 2 -27 l-6 -28 -7 25
c-6 20 -7 17 -8 -17 -1 -23 -5 -53 -11 -67 -6 -16 -6 -27 0 -31 6 -4 10 -3 11
2 1 14 27 111 44 162 5 17 4 21 -4 16 -11 -6 -9 18 5 63 4 14 -2 16 -11 3z" />
		<path d="M1740 230 c5 -17 7 -39 5 -50 -2 -11 0 -22 6 -25 10 -7 13 64 3 89
-11 29 -23 17 -14 -14z" />
		<path d="M569 183 c-47 -97 -50 -105 -39 -98 6 3 10 12 10 20 0 7 6 15 13 18
14 5 61 116 53 124 -2 3 -19 -26 -37 -64z" />
		<path d="M2361 225 c-1 -22 39 -147 50 -155 4 -3 10 -21 14 -40 7 -32 8 -33
16 -13 8 22 2 41 -51 158 -10 22 -20 47 -23 55 -4 11 -6 9 -6 -5z" />
		<path d="M922 203 c-5 -16 -20 -54 -32 -86 -13 -32 -20 -60 -17 -64 4 -3 12 7
18 23 38 97 56 154 49 154 -4 0 -12 -12 -18 -27z" />
		<path d="M1338 213 c0 -10 -2 -27 -2 -38 -1 -11 -5 -26 -10 -34 -6 -9 -5 -12
5 -9 9 3 15 22 16 51 2 44 -5 68 -9 30z" />
		<path d="M457 110 c-30 -61 -48 -105 -40 -98 16 13 107 197 100 204 -2 2 -29
-46 -60 -106z" />
		<path d="M850 218 c0 -3 -7 -22 -15 -42 -8 -20 -11 -36 -6 -36 11 0 35 69 27
77 -3 4 -6 4 -6 1z" />
		<path d="M90 170 c-43 -46 -90 -121 -90 -143 0 -11 2 -18 4 -16 19 23 125 189
120 189 -3 0 -19 -14 -34 -30z" />
		<path d="M2316 173 c3 -14 8 -31 11 -36 3 -6 7 -22 9 -36 2 -29 31 -101 40
-101 7 0 0 32 -27 122 -21 68 -42 101 -33 51z" />
		<path d="M2106 158 c3 -20 2 -43 -2 -50 -5 -7 -9 -19 -10 -26 -2 -10 1 -11 12
-1 16 13 18 63 4 94 -7 14 -8 10 -4 -17z" />
		<path d="M1590 152 c0 -15 -4 -32 -9 -37 -6 -6 -4 -15 5 -23 12 -11 14 -5 14
38 0 27 -2 50 -5 50 -3 0 -5 -13 -5 -28z" />
		<path d="M2208 174 c-3 -3 2 -22 12 -42 9 -20 20 -44 23 -52 3 -8 6 0 6 18 1
17 -3 32 -9 32 -5 0 -10 9 -10 19 0 20 -13 35 -22 25z" />
		<path d="M1069 133 c-16 -38 -36 -143 -25 -132 3 3 11 32 17 65 6 32 15 64 21
71 5 7 8 17 6 23 -2 6 -10 -7 -19 -27z" />
		<path d="M769 116 c-11 -26 -18 -50 -15 -53 3 -3 10 7 17 23 6 16 15 37 21 47
5 11 7 21 4 25 -3 3 -15 -16 -27 -42z" />
		<path d="M1747 128 c10 -14 11 -58 0 -74 -3 -5 -2 -16 4 -24 7 -12 9 -11 10 5
0 11 3 39 5 63 4 34 2 42 -12 42 -12 0 -14 -4 -7 -12z" />
		<path d="M684 83 c-10 -27 -22 -54 -27 -61 -5 -7 -7 -15 -3 -19 8 -8 8 -8 39
65 14 34 22 62 18 62 -5 0 -17 -21 -27 -47z" />
		<path d="M1388 84 c-2 -19 0 -37 4 -40 4 -3 8 6 8 20 0 13 3 31 6 40 3 9 2 16
-4 16 -5 0 -12 -16 -14 -36z" />
		<path d="M338 54 c-27 -57 -20 -77 8 -21 9 17 23 39 31 48 12 14 12 17 0 22
-10 4 -22 -12 -39 -49z" />
		<path d="M814 76 c0 -11 -4 -34 -7 -51 -6 -25 -4 -24 12 10 24 49 24 52 9 58
-8 3 -13 -4 -14 -17z" />
		<path d="M1988 94 c-5 -4 -8 -28 -7 -53 0 -41 1 -43 10 -21 11 27 8 86 -3 74z" />
		<path d="M2207 60 c3 -25 9 -49 14 -54 11 -12 2 61 -10 83 -7 11 -8 1 -4 -29z" />
		<path d="M647 83 c-15 -24 -35 -83 -29 -83 4 0 15 20 24 45 15 40 17 58 5 38z" />
		<path d="M1317 67 c-4 -10 -7 -31 -6 -45 l0 -27 10 25 c5 13 8 33 7 45 -3 19
-4 19 -11 2z" />
		<path d="M496 42 c-10 -19 -15 -36 -13 -39 9 -8 39 45 35 59 -3 7 -12 -2 -22
-20z" />
		<path d="M2020 39 c0 -5 4 -7 10 -4 5 3 7 0 4 -8 -3 -10 3 -16 20 -19 14 -3
26 -1 26 3 0 5 -7 9 -15 9 -8 0 -15 7 -15 15 0 8 -7 15 -15 15 -8 0 -15 -5
-15 -11z" />
	</g>
</svg>